# This file uses centimeters as units for non-parametric coordinates.

mtllib high2.mtl
g default
v 0.013844 0.064294 -0.010790
v -0.013844 0.064294 -0.010790
v -0.013844 0.064294 0.010790
v 0.013844 0.064294 0.010790
v 0.013844 0.063001 -0.010790
v 0.013844 0.063001 0.010790
v -0.013844 0.063001 0.010790
v -0.013844 0.063001 -0.010790
v 0.013844 0.057828 -0.010790
v -0.013844 0.057828 -0.010790
v -0.013844 0.057828 0.010790
v 0.013844 0.057828 0.010790
v 0.013844 0.056535 -0.010790
v 0.013844 0.056535 0.010790
v -0.013844 0.056535 0.010790
v -0.013844 0.056535 -0.010790
v 0.013844 0.051363 -0.010790
v -0.013844 0.051363 -0.010790
v -0.013844 0.051363 0.010790
v 0.013844 0.051363 0.010790
v 0.013844 0.050070 -0.010790
v 0.013844 0.050070 0.010790
v -0.013844 0.050070 0.010790
v -0.013844 0.050070 -0.010790
v 0.013844 0.044897 -0.010790
v -0.013844 0.044897 -0.010790
v -0.013844 0.044897 0.010790
v 0.013844 0.044897 0.010790
v 0.013844 0.043604 -0.010790
v 0.013844 0.043604 0.010790
v -0.013844 0.043604 0.010790
v -0.013844 0.043604 -0.010790
v 0.013844 0.038431 -0.010790
v -0.013844 0.038431 -0.010790
v -0.013844 0.038431 0.010790
v 0.013844 0.038431 0.010790
v 0.013844 0.037138 -0.010790
v 0.013844 0.037138 0.010790
v -0.013844 0.037138 0.010790
v -0.013844 0.037138 -0.010790
v 0.013844 0.031965 -0.010790
v -0.013844 0.031965 -0.010790
v -0.013844 0.031965 0.010790
v 0.013844 0.031965 0.010790
v 0.013844 0.030672 -0.010790
v 0.013844 0.030672 0.010790
v -0.013844 0.030672 0.010790
v -0.013844 0.030672 -0.010790
v 0.013844 0.025500 -0.010790
v -0.013844 0.025500 -0.010790
v -0.013844 0.025500 0.010790
v 0.013844 0.025500 0.010790
v 0.013844 0.024206 -0.010790
v 0.013844 0.024206 0.010790
v -0.013844 0.024206 0.010790
v -0.013844 0.024206 -0.010790
v 0.013844 0.019034 -0.010790
v -0.013844 0.019034 -0.010790
v -0.013844 0.019034 0.010790
v 0.013844 0.019034 0.010790
v 0.013844 0.017741 -0.010790
v 0.013844 0.017741 0.010790
v -0.013844 0.017741 0.010790
v -0.013844 0.017741 -0.010790
v 0.013844 0.011275 -0.010790
v -0.013844 0.011275 -0.010790
v -0.013844 0.011275 0.010790
v 0.013844 0.011275 0.010790
v 0.013844 0.012568 -0.010790
v -0.013844 0.012568 -0.010790
v -0.013844 0.012568 0.010790
v 0.013844 0.012568 0.010790
v 0.013844 0.011275 -0.010790
v -0.013844 0.011275 -0.010790
v -0.013844 0.011275 0.010790
v 0.013844 0.011275 0.010790
v 0.013844 0.012568 -0.010790
v -0.013844 0.012568 -0.010790
v -0.013844 0.012568 0.010790
v 0.013844 0.012568 0.010790
v 0.012744 0.000043 -0.009933
v -0.012744 0.000043 -0.009933
v -0.012744 0.000043 0.009933
v 0.012744 0.000043 0.009933
v 0.012744 0.093151 -0.009933
v -0.012744 0.093151 -0.009933
v -0.012744 0.093151 0.009933
v 0.012744 0.093151 0.009933
v 0.012107 0.093151 -0.009436
v -0.012107 0.093151 -0.009436
v -0.012107 0.093151 0.009436
v 0.012107 0.093151 0.009436
v 0.012107 0.093001 -0.009436
v -0.012107 0.093001 -0.009436
v -0.012107 0.093001 0.009436
v 0.012107 0.093001 0.009436
v 0.008704 0.093001 -0.006784
v -0.008704 0.093001 -0.006784
v -0.008704 0.093001 0.006784
v 0.008704 0.093001 0.006784
v 0.008704 0.104954 -0.006784
v -0.008704 0.104954 -0.006784
v -0.008704 0.104954 0.006784
v 0.008704 0.104954 0.006784
v 0.008269 0.104954 -0.006445
v -0.008269 0.104954 -0.006445
v -0.008269 0.104954 0.006445
v 0.008269 0.104954 0.006445
v 0.008269 0.104804 -0.006445
v -0.008269 0.104804 -0.006445
v -0.008269 0.104804 0.006445
v 0.008269 0.104804 0.006445
v 0.000827 0.104804 -0.000644
v -0.000827 0.104804 -0.000644
v -0.000827 0.104804 0.000645
v 0.000827 0.104804 0.000645
v 0.000083 0.127549 -0.000064
v -0.000083 0.127549 -0.000064
v -0.000083 0.127549 0.000064
v 0.000083 0.127549 0.000064
v 0.013844 0.077226 -0.010790
v -0.013844 0.077226 -0.010790
v -0.013844 0.077226 0.010790
v 0.013844 0.077226 0.010790
v 0.013844 0.075933 -0.010790
v 0.013844 0.075933 0.010790
v -0.013844 0.075933 0.010790
v -0.013844 0.075933 -0.010790
v 0.013844 0.070760 -0.010790
v -0.013844 0.070760 -0.010790
v -0.013844 0.070760 0.010790
v 0.013844 0.070760 0.010790
v 0.013844 0.069467 -0.010790
v 0.013844 0.069467 0.010790
v -0.013844 0.069467 0.010790
v -0.013844 0.069467 -0.010790
vt 1.913106 -1.918999
vt 1.913106 0.918999
vt -1.728006 0.918999
vt -1.728006 -1.918999
vt 0.000000 0.000000
vt 4.000000 0.000000
vt 4.000000 19.000000
vt 0.000000 19.000000
vt -1.918999 0.500000
vt 0.918999 0.500000
vt 0.918999 19.121483
vt -1.918999 19.121483
vt -1.728006 0.500000
vt 1.913106 0.500000
vt 1.913106 19.121483
vt -1.728006 19.121483
vt 0.081001 0.500000
vt 2.918999 0.500000
vt 2.918999 19.121483
vt 0.081001 19.121483
vt 1.822078 19.121483
vt -1.636978 19.121483
vt -1.636978 19.091484
vt 1.822078 19.091484
vt 2.848049 19.121483
vt 0.151951 19.121483
vt 0.151951 19.091484
vt 2.848049 19.091484
vt 3.000000 0.000000
vt 0.000000 0.000000
vt 0.000000 0.000000
vt 3.000000 0.000000
vt 0.848049 19.121483
vt -1.848049 19.121483
vt -1.848049 19.091484
vt 0.848049 19.091484
vt 0.000000 0.000000
vt 2.000000 0.000000
vt 2.000000 2.000000
vt 0.000000 2.000000
vt -1.469135 19.091484
vt 0.469135 19.091484
vt 0.469135 21.482079
vt -1.469135 21.482079
vt -1.150837 19.091484
vt 1.335937 19.091484
vt 1.335937 21.482079
vt -1.150837 21.482079
vt 0.530865 19.091484
vt 2.469135 19.091484
vt 2.469135 21.482079
vt 0.530865 21.482079
vt 1.273767 21.482079
vt -1.088667 21.482079
vt -1.088667 21.452080
vt 1.273767 21.452080
vt 2.420677 21.482079
vt 0.579323 21.482079
vt 0.579323 21.452080
vt 2.420677 21.452080
vt 2.000000 0.000000
vt 0.000000 0.000000
vt 0.000000 0.000000
vt 2.000000 0.000000
vt 0.420677 21.482079
vt -1.420677 21.482079
vt -1.420677 21.452080
vt 0.420677 21.452080
vt 0.000000 0.000000
vt 0.000000 0.000000
vt 0.000000 5.000000
vt 0.000000 5.000000
vt -0.592064 21.452080
vt -0.407928 21.452080
vt -0.490791 26.001102
vt -0.509201 26.001102
vt -0.025572 21.452080
vt 0.210671 21.452080
vt 0.104362 26.001102
vt 0.080738 26.001102
vt 1.407928 21.452080
vt 1.592064 21.452080
vt 1.509201 26.001102
vt 1.490791 26.001102
vn 0.000000 1.000000 0.000000
vn 0.000000 1.000000 0.000000
vn 0.000000 1.000000 0.000000
vn 0.000000 1.000000 0.000000
vn 0.000000 -1.000000 0.000000
vn 0.000000 -1.000000 0.000000
vn 0.000000 -1.000000 0.000000
vn 0.000000 -1.000000 0.000000
vn 0.000000 0.000000 -1.000000
vn 0.000000 0.000000 -1.000000
vn 0.000000 0.000000 -1.000000
vn 0.000000 0.000000 -1.000000
vn -1.000000 0.000000 0.000000
vn -1.000000 0.000000 0.000000
vn -1.000000 0.000000 0.000000
vn -1.000000 0.000000 0.000000
vn 0.000000 0.000000 1.000000
vn 0.000000 0.000000 1.000000
vn 0.000000 0.000000 1.000000
vn 0.000000 0.000000 1.000000
vn 1.000000 0.000000 0.000000
vn 1.000000 0.000000 0.000000
vn 1.000000 0.000000 0.000000
vn 1.000000 0.000000 0.000000
vn 0.000000 1.000000 0.000000
vn 0.000000 1.000000 0.000000
vn 0.000000 1.000000 0.000000
vn 0.000000 1.000000 0.000000
vn 0.000000 -1.000000 0.000000
vn 0.000000 -1.000000 0.000000
vn 0.000000 -1.000000 0.000000
vn 0.000000 -1.000000 0.000000
vn 0.000000 0.000000 -1.000000
vn 0.000000 0.000000 -1.000000
vn 0.000000 0.000000 -1.000000
vn 0.000000 0.000000 -1.000000
vn -1.000000 0.000000 0.000000
vn -1.000000 0.000000 0.000000
vn -1.000000 0.000000 0.000000
vn -1.000000 0.000000 0.000000
vn 0.000000 0.000000 1.000000
vn 0.000000 0.000000 1.000000
vn 0.000000 0.000000 1.000000
vn 0.000000 0.000000 1.000000
vn 1.000000 0.000000 0.000000
vn 1.000000 0.000000 0.000000
vn 1.000000 0.000000 0.000000
vn 1.000000 0.000000 0.000000
vn 0.000000 1.000000 0.000000
vn 0.000000 1.000000 0.000000
vn 0.000000 1.000000 0.000000
vn 0.000000 1.000000 0.000000
vn 0.000000 -1.000000 0.000000
vn 0.000000 -1.000000 0.000000
vn 0.000000 -1.000000 0.000000
vn 0.000000 -1.000000 0.000000
vn 0.000000 0.000000 -1.000000
vn 0.000000 0.000000 -1.000000
vn 0.000000 0.000000 -1.000000
vn 0.000000 0.000000 -1.000000
vn -1.000000 0.000000 0.000000
vn -1.000000 0.000000 0.000000
vn -1.000000 0.000000 0.000000
vn -1.000000 0.000000 0.000000
vn 0.000000 0.000000 1.000000
vn 0.000000 0.000000 1.000000
vn 0.000000 0.000000 1.000000
vn 0.000000 0.000000 1.000000
vn 1.000000 0.000000 0.000000
vn 1.000000 0.000000 0.000000
vn 1.000000 0.000000 0.000000
vn 1.000000 0.000000 0.000000
vn 0.000000 1.000000 0.000000
vn 0.000000 1.000000 0.000000
vn 0.000000 1.000000 0.000000
vn 0.000000 1.000000 0.000000
vn 0.000000 -1.000000 0.000000
vn 0.000000 -1.000000 0.000000
vn 0.000000 -1.000000 0.000000
vn 0.000000 -1.000000 0.000000
vn 0.000000 0.000000 -1.000000
vn 0.000000 0.000000 -1.000000
vn 0.000000 0.000000 -1.000000
vn 0.000000 0.000000 -1.000000
vn -1.000000 0.000000 0.000000
vn -1.000000 0.000000 0.000000
vn -1.000000 0.000000 0.000000
vn -1.000000 0.000000 0.000000
vn 0.000000 0.000000 1.000000
vn 0.000000 0.000000 1.000000
vn 0.000000 0.000000 1.000000
vn 0.000000 0.000000 1.000000
vn 1.000000 0.000000 0.000000
vn 1.000000 0.000000 0.000000
vn 1.000000 0.000000 0.000000
vn 1.000000 0.000000 0.000000
vn 0.000000 1.000000 0.000000
vn 0.000000 1.000000 0.000000
vn 0.000000 1.000000 0.000000
vn 0.000000 1.000000 0.000000
vn 0.000000 -1.000000 0.000000
vn 0.000000 -1.000000 0.000000
vn 0.000000 -1.000000 0.000000
vn 0.000000 -1.000000 0.000000
vn 0.000000 0.000000 -1.000000
vn 0.000000 0.000000 -1.000000
vn 0.000000 0.000000 -1.000000
vn 0.000000 0.000000 -1.000000
vn -1.000000 0.000000 0.000000
vn -1.000000 0.000000 0.000000
vn -1.000000 0.000000 0.000000
vn -1.000000 0.000000 0.000000
vn 0.000000 0.000000 1.000000
vn 0.000000 0.000000 1.000000
vn 0.000000 0.000000 1.000000
vn 0.000000 0.000000 1.000000
vn 1.000000 0.000000 0.000000
vn 1.000000 0.000000 0.000000
vn 1.000000 0.000000 0.000000
vn 1.000000 0.000000 0.000000
vn 0.000000 1.000000 0.000000
vn 0.000000 1.000000 0.000000
vn 0.000000 1.000000 0.000000
vn 0.000000 1.000000 0.000000
vn 0.000000 -1.000000 0.000000
vn 0.000000 -1.000000 0.000000
vn 0.000000 -1.000000 0.000000
vn 0.000000 -1.000000 0.000000
vn 0.000000 0.000000 -1.000000
vn 0.000000 0.000000 -1.000000
vn 0.000000 0.000000 -1.000000
vn 0.000000 0.000000 -1.000000
vn -1.000000 0.000000 0.000000
vn -1.000000 0.000000 0.000000
vn -1.000000 0.000000 0.000000
vn -1.000000 0.000000 0.000000
vn 0.000000 0.000000 1.000000
vn 0.000000 0.000000 1.000000
vn 0.000000 0.000000 1.000000
vn 0.000000 0.000000 1.000000
vn 1.000000 0.000000 0.000000
vn 1.000000 0.000000 0.000000
vn 1.000000 0.000000 0.000000
vn 1.000000 0.000000 0.000000
vn 0.000000 1.000000 0.000000
vn 0.000000 1.000000 0.000000
vn 0.000000 1.000000 0.000000
vn 0.000000 1.000000 0.000000
vn 0.000000 -1.000000 0.000000
vn 0.000000 -1.000000 0.000000
vn 0.000000 -1.000000 0.000000
vn 0.000000 -1.000000 0.000000
vn 0.000000 0.000000 -1.000000
vn 0.000000 0.000000 -1.000000
vn 0.000000 0.000000 -1.000000
vn 0.000000 0.000000 -1.000000
vn -1.000000 0.000000 0.000000
vn -1.000000 0.000000 0.000000
vn -1.000000 0.000000 0.000000
vn -1.000000 0.000000 0.000000
vn 0.000000 0.000000 1.000000
vn 0.000000 0.000000 1.000000
vn 0.000000 0.000000 1.000000
vn 0.000000 0.000000 1.000000
vn 1.000000 0.000000 0.000000
vn 1.000000 0.000000 0.000000
vn 1.000000 0.000000 0.000000
vn 1.000000 0.000000 0.000000
vn 0.000000 1.000000 0.000000
vn 0.000000 1.000000 0.000000
vn 0.000000 1.000000 0.000000
vn 0.000000 1.000000 0.000000
vn 0.000000 -1.000000 0.000000
vn 0.000000 -1.000000 0.000000
vn 0.000000 -1.000000 0.000000
vn 0.000000 -1.000000 0.000000
vn 0.000000 0.000000 -1.000000
vn 0.000000 0.000000 -1.000000
vn 0.000000 0.000000 -1.000000
vn 0.000000 0.000000 -1.000000
vn -1.000000 0.000000 0.000000
vn -1.000000 0.000000 0.000000
vn -1.000000 0.000000 0.000000
vn -1.000000 0.000000 0.000000
vn 0.000000 0.000000 1.000000
vn 0.000000 0.000000 1.000000
vn 0.000000 0.000000 1.000000
vn 0.000000 0.000000 1.000000
vn 1.000000 0.000000 0.000000
vn 1.000000 0.000000 0.000000
vn 1.000000 0.000000 0.000000
vn 1.000000 0.000000 0.000000
vn 0.000000 1.000000 0.000000
vn 0.000000 1.000000 0.000000
vn 0.000000 1.000000 0.000000
vn 0.000000 1.000000 0.000000
vn 0.000000 -1.000000 0.000000
vn 0.000000 -1.000000 0.000000
vn 0.000000 -1.000000 0.000000
vn 0.000000 -1.000000 0.000000
vn 0.000000 0.000000 -1.000000
vn 0.000000 0.000000 -1.000000
vn 0.000000 0.000000 -1.000000
vn 0.000000 0.000000 -1.000000
vn -1.000000 0.000000 0.000000
vn -1.000000 0.000000 0.000000
vn -1.000000 0.000000 0.000000
vn -1.000000 0.000000 0.000000
vn 0.000000 0.000000 1.000000
vn 0.000000 0.000000 1.000000
vn 0.000000 0.000000 1.000000
vn 0.000000 0.000000 1.000000
vn 1.000000 0.000000 0.000000
vn 1.000000 0.000000 0.000000
vn 1.000000 0.000000 0.000000
vn 1.000000 0.000000 0.000000
vn 0.000000 1.000000 0.000000
vn 0.000000 1.000000 0.000000
vn 0.000000 1.000000 0.000000
vn 0.000000 1.000000 0.000000
vn 0.000000 -1.000000 0.000000
vn 0.000000 -1.000000 0.000000
vn 0.000000 -1.000000 0.000000
vn 0.000000 -1.000000 0.000000
vn 0.000000 0.000000 -1.000000
vn 0.000000 0.000000 -1.000000
vn 0.000000 0.000000 -1.000000
vn 0.000000 0.000000 -1.000000
vn -1.000000 0.000000 0.000000
vn -1.000000 0.000000 0.000000
vn -1.000000 0.000000 0.000000
vn -1.000000 0.000000 0.000000
vn 0.000000 0.000000 1.000000
vn 0.000000 0.000000 1.000000
vn 0.000000 0.000000 1.000000
vn 0.000000 0.000000 1.000000
vn 1.000000 0.000000 0.000000
vn 1.000000 0.000000 0.000000
vn 1.000000 0.000000 0.000000
vn 1.000000 0.000000 0.000000
vn 0.000000 1.000000 0.000000
vn 0.000000 1.000000 0.000000
vn 0.000000 1.000000 0.000000
vn 0.000000 1.000000 0.000000
vn 0.000000 -1.000000 0.000000
vn 0.000000 -1.000000 0.000000
vn 0.000000 -1.000000 0.000000
vn 0.000000 -1.000000 0.000000
vn 0.000000 0.000000 -1.000000
vn 0.000000 0.000000 -1.000000
vn 0.000000 0.000000 -1.000000
vn 0.000000 0.000000 -1.000000
vn -1.000000 0.000000 0.000000
vn -1.000000 0.000000 0.000000
vn -1.000000 0.000000 0.000000
vn -1.000000 0.000000 0.000000
vn 0.000000 0.000000 1.000000
vn 0.000000 0.000000 1.000000
vn 0.000000 0.000000 1.000000
vn 0.000000 0.000000 1.000000
vn 1.000000 0.000000 0.000000
vn 1.000000 0.000000 0.000000
vn 1.000000 0.000000 0.000000
vn 1.000000 0.000000 0.000000
vn -0.000000 1.000000 -0.000005
vn -0.000000 1.000000 -0.000005
vn -0.000000 1.000000 -0.000006
vn -0.000000 1.000000 -0.000006
vn -0.000000 1.000000 -0.000005
vn 0.000000 1.000000 0.000005
vn 0.000000 1.000000 0.000006
vn -0.000000 1.000000 -0.000006
vn 0.000000 1.000000 0.000005
vn 0.000000 1.000000 0.000005
vn 0.000000 1.000000 0.000006
vn 0.000000 1.000000 0.000006
vn 0.000000 1.000000 0.000005
vn -0.000000 1.000000 -0.000005
vn -0.000000 1.000000 -0.000006
vn 0.000000 1.000000 0.000006
vn 0.000000 0.000000 1.000000
vn 0.000000 0.000000 1.000000
vn 0.000000 0.000000 1.000000
vn 0.000000 0.000000 1.000000
vn 1.000000 0.000000 0.000000
vn 1.000000 0.000000 0.000000
vn 1.000000 0.000000 0.000000
vn 1.000000 0.000000 0.000000
vn 0.000000 0.000000 -1.000000
vn 0.000000 0.000000 -1.000000
vn 0.000000 0.000000 -1.000000
vn 0.000000 0.000000 -1.000000
vn -1.000000 0.000000 0.000000
vn -1.000000 0.000000 0.000000
vn -1.000000 0.000000 0.000000
vn -1.000000 0.000000 0.000000
vn -0.000000 1.000000 -0.000000
vn -0.000000 1.000000 -0.000000
vn -0.000000 1.000000 -0.000000
vn -0.000000 1.000000 -0.000000
vn -0.000000 1.000000 -0.000000
vn 0.000000 1.000000 0.000000
vn 0.000000 1.000000 0.000000
vn -0.000000 1.000000 -0.000000
vn 0.000000 1.000000 0.000000
vn 0.000000 1.000000 0.000000
vn 0.000000 1.000000 0.000000
vn 0.000000 1.000000 0.000000
vn 0.000000 1.000000 0.000000
vn -0.000000 1.000000 -0.000000
vn -0.000000 1.000000 -0.000000
vn 0.000000 1.000000 0.000000
vn 0.000000 0.000000 -1.000000
vn 0.000000 0.000000 -1.000000
vn 0.000000 0.000000 -1.000000
vn 0.000000 0.000000 -1.000000
vn -1.000000 0.000000 0.000000
vn -1.000000 0.000000 0.000000
vn -1.000000 0.000000 0.000000
vn -1.000000 0.000000 0.000000
vn 0.000000 0.000000 1.000000
vn 0.000000 0.000000 1.000000
vn 0.000000 0.000000 1.000000
vn 0.000000 0.000000 1.000000
vn 1.000000 0.000000 0.000000
vn 1.000000 0.000000 0.000000
vn 1.000000 0.000000 0.000000
vn 1.000000 0.000000 0.000000
vn 0.000000 1.000000 0.000008
vn 0.000000 1.000000 0.000008
vn 0.000000 1.000000 0.000010
vn 0.000000 1.000000 0.000010
vn 0.000000 1.000000 0.000008
vn -0.000000 1.000000 -0.000005
vn -0.000000 1.000000 -0.000007
vn 0.000000 1.000000 0.000010
vn -0.000000 1.000000 -0.000005
vn -0.000000 1.000000 -0.000005
vn -0.000000 1.000000 -0.000007
vn -0.000000 1.000000 -0.000007
vn -0.000000 1.000000 -0.000005
vn 0.000000 1.000000 0.000008
vn 0.000000 1.000000 0.000010
vn -0.000000 1.000000 -0.000007
vn 0.000000 0.000000 1.000000
vn 0.000000 0.000000 1.000000
vn 0.000000 0.000000 1.000000
vn 0.000000 0.000000 1.000000
vn 1.000000 0.000000 0.000000
vn 1.000000 0.000000 0.000000
vn 1.000000 0.000000 0.000000
vn 1.000000 0.000000 0.000000
vn 0.000000 0.000000 -1.000000
vn 0.000000 0.000000 -1.000000
vn 0.000000 0.000000 -1.000000
vn 0.000000 0.000000 -1.000000
vn -1.000000 0.000000 0.000000
vn -1.000000 0.000000 0.000000
vn -1.000000 0.000000 0.000000
vn -1.000000 0.000000 0.000000
vn 0.000000 1.000000 0.000000
vn 0.000000 1.000000 0.000000
vn 0.000000 1.000000 0.000000
vn 0.000000 1.000000 0.000000
vn 0.000000 1.000000 0.000000
vn 0.000000 1.000000 0.000000
vn 0.000000 1.000000 0.000000
vn 0.000000 1.000000 0.000000
vn 0.000000 1.000000 0.000000
vn 0.000000 1.000000 0.000000
vn 0.000000 1.000000 0.000000
vn 0.000000 1.000000 0.000000
vn 0.000000 1.000000 0.000000
vn 0.000000 1.000000 0.000000
vn 0.000000 1.000000 0.000000
vn 0.000000 1.000000 0.000000
vn -0.000000 0.025494 -0.999675
vn -0.000000 0.025494 -0.999675
vn -0.000000 0.025494 -0.999675
vn -0.000000 0.025494 -0.999675
vn -0.999465 0.032700 0.000000
vn -0.999465 0.032700 0.000000
vn -0.999465 0.032700 0.000000
vn -0.999465 0.032700 0.000000
vn 0.000000 0.025494 0.999675
vn 0.000000 0.025494 0.999675
vn 0.000000 0.025494 0.999675
vn 0.000000 0.025494 0.999675
vn 0.999465 0.032701 0.000000
vn 0.999465 0.032701 0.000000
vn 0.999465 0.032701 0.000000
vn 0.999465 0.032701 0.000000
vn 0.000000 1.000000 0.000000
vn 0.000000 1.000000 0.000000
vn 0.000000 1.000000 0.000000
vn 0.000000 1.000000 0.000000
vn 0.000000 -1.000000 0.000000
vn 0.000000 -1.000000 0.000000
vn 0.000000 -1.000000 0.000000
vn 0.000000 -1.000000 0.000000
vn 0.000000 0.000000 -1.000000
vn 0.000000 0.000000 -1.000000
vn 0.000000 0.000000 -1.000000
vn 0.000000 0.000000 -1.000000
vn -1.000000 0.000000 0.000000
vn -1.000000 0.000000 0.000000
vn -1.000000 0.000000 0.000000
vn -1.000000 0.000000 0.000000
vn 0.000000 0.000000 1.000000
vn 0.000000 0.000000 1.000000
vn 0.000000 0.000000 1.000000
vn 0.000000 0.000000 1.000000
vn 1.000000 0.000000 0.000000
vn 1.000000 0.000000 0.000000
vn 1.000000 0.000000 0.000000
vn 1.000000 0.000000 0.000000
vn 0.000000 1.000000 0.000000
vn 0.000000 1.000000 0.000000
vn 0.000000 1.000000 0.000000
vn 0.000000 1.000000 0.000000
vn 0.000000 -1.000000 0.000000
vn 0.000000 -1.000000 0.000000
vn 0.000000 -1.000000 0.000000
vn 0.000000 -1.000000 0.000000
vn 0.000000 0.000000 -1.000000
vn 0.000000 0.000000 -1.000000
vn 0.000000 0.000000 -1.000000
vn 0.000000 0.000000 -1.000000
vn -1.000000 0.000000 0.000000
vn -1.000000 0.000000 0.000000
vn -1.000000 0.000000 0.000000
vn -1.000000 0.000000 0.000000
vn 0.000000 0.000000 1.000000
vn 0.000000 0.000000 1.000000
vn 0.000000 0.000000 1.000000
vn 0.000000 0.000000 1.000000
vn 1.000000 0.000000 0.000000
vn 1.000000 0.000000 0.000000
vn 1.000000 0.000000 0.000000
vn 1.000000 0.000000 0.000000
s off
g high4:polySurface1147
usemtl high4:initialShadingGroup
f 1/1/1 2/2/2 3/3/3 4/4/4
f 5/5/5 6/6/6 7/7/7 8/8/8
f 5/9/9 8/10/10 2/11/11 1/12/12
f 8/13/13 7/14/14 3/15/15 2/16/16
f 7/17/17 6/18/18 4/19/19 3/20/20
f 6//21 5//22 1//23 4//24
f 9//25 10//26 11//27 12//28
f 13//29 14//30 15//31 16//32
f 13//33 16//34 10//35 9//36
f 16/21/37 15/22/38 11/23/39 10/24/40
f 15/25/41 14/26/42 12/27/43 11/28/44
f 14/29/45 13/30/46 9/31/47 12/32/48
f 17/33/49 18/34/50 19/35/51 20/36/52
f 21//53 22//54 23//55 24//56
f 21//57 24//58 18//59 17//60
f 24//61 23//62 19//63 18//64
f 23//65 22//66 20//67 19//68
f 22/37/69 21/38/70 17/39/71 20/40/72
f 25/41/73 26/42/74 27/43/75 28/44/76
f 29/45/77 30/46/78 31/47/79 32/48/80
f 29/49/81 32/50/82 26/51/83 25/52/84
f 32//85 31//86 27//87 26//88
f 31//89 30//90 28//91 27//92
f 30//93 29//94 25//95 28//96
f 33//97 34//98 35//99 36//100
f 37/53/101 38/54/102 39/55/103 40/56/104
f 37/57/105 40/58/106 34/59/107 33/60/108
f 40/61/109 39/62/110 35/63/111 34/64/112
f 39/65/113 38/66/114 36/67/115 35/68/116
f 38//117 37//118 33//119 36//120
f 41//121 42//122 43//123 44//124
f 45//125 46//126 47//127 48//128
f 45//129 48//130 42//131 41//132
f 48/69/133 47/70/134 43/71/135 42/72/136
f 47/73/137 46/74/138 44/75/139 43/76/140
f 46/77/141 45/78/142 41/79/143 44/80/144
f 49/81/145 50/82/146 51/83/147 52/84/148
f 53//149 54//150 55//151 56//152
f 53//153 56//154 50//155 49//156
f 56//157 55//158 51//159 50//160
f 55//161 54//162 52//163 51//164
f 54//165 53//166 49//167 52//168
f 57//169 58//170 59//171 60//172
f 61//173 62//174 63//175 64//176
f 61//177 64//178 58//179 57//180
f 64//181 63//182 59//183 58//184
f 63//185 62//186 60//187 59//188
f 62//189 61//190 57//191 60//192
f 69//193 70//194 71//195 72//196
f 65//197 68//198 67//199 66//200
f 65//201 66//202 70//203 69//204
f 66//205 67//206 71//207 70//208
f 67//209 68//210 72//211 71//212
f 68//213 65//214 69//215 72//216
f 77//217 78//218 79//219 80//220
f 73//221 76//222 75//223 74//224
f 73//225 74//226 78//227 77//228
f 74//229 75//230 79//231 78//232
f 75//233 76//234 80//235 79//236
f 76//237 73//238 77//239 80//240
f 117//241 118//242 119//243 120//244
f 81//245 84//246 83//247 82//248
f 81//249 82//250 86//251 85//252
f 82//253 83//254 87//255 86//256
f 83//257 84//258 88//259 87//260
f 84//261 81//262 85//263 88//264
f 85//265 86//266 90//267 89//268
f 86//269 87//270 91//271 90//272
f 87//273 88//274 92//275 91//276
f 88//277 85//278 89//279 92//280
f 89//281 90//282 94//283 93//284
f 90//285 91//286 95//287 94//288
f 91//289 92//290 96//291 95//292
f 92//293 89//294 93//295 96//296
f 93//297 94//298 98//299 97//300
f 94//301 95//302 99//303 98//304
f 95//305 96//306 100//307 99//308
f 96//309 93//310 97//311 100//312
f 97//313 98//314 102//315 101//316
f 98//317 99//318 103//319 102//320
f 99//321 100//322 104//323 103//324
f 100//325 97//326 101//327 104//328
f 101//329 102//330 106//331 105//332
f 102//333 103//334 107//335 106//336
f 103//337 104//338 108//339 107//340
f 104//341 101//342 105//343 108//344
f 105//345 106//346 110//347 109//348
f 106//349 107//350 111//351 110//352
f 107//353 108//354 112//355 111//356
f 108//357 105//358 109//359 112//360
f 109//361 110//362 114//363 113//364
f 110//365 111//366 115//367 114//368
f 111//369 112//370 116//371 115//372
f 112//373 109//374 113//375 116//376
f 113//377 114//378 118//379 117//380
f 114//381 115//382 119//383 118//384
f 115//385 116//386 120//387 119//388
f 116//389 113//390 117//391 120//392
f 121//393 122//394 123//395 124//396
f 125//397 126//398 127//399 128//400
f 125//401 128//402 122//403 121//404
f 128//405 127//406 123//407 122//408
f 127//409 126//410 124//411 123//412
f 126//413 125//414 121//415 124//416
f 129//417 130//418 131//419 132//420
f 133//421 134//422 135//423 136//424
f 133//425 136//426 130//427 129//428
f 136//429 135//430 131//431 130//432
f 135//433 134//434 132//435 131//436
f 134//437 133//438 129//439 132//440
