# This file uses centimeters as units for non-parametric coordinates.

mtllib low1.mtl
g default
v 0.002857 0.012789 0.000673
v 0.002857 0.012789 -0.002182
v 0.002857 0.014634 0.000673
v 0.002857 0.014634 -0.002182
v 0.000188 0.014634 0.000673
v 0.000188 0.014634 -0.002182
v 0.000188 0.012789 0.000673
v 0.000188 0.012789 -0.002182
v 0.009207 0.000278 -0.012157
v -0.009207 0.000278 -0.012157
v -0.009207 0.000278 0.012157
v 0.009207 0.000278 0.012157
v 0.009207 0.012999 -0.012157
v -0.009207 0.012999 -0.012157
v -0.009207 0.012999 0.012157
v 0.009207 0.012999 0.012157
v 0.008747 0.012999 -0.011549
v -0.008747 0.012999 -0.011549
v -0.008747 0.012999 0.011549
v 0.008747 0.012999 0.011549
v 0.008747 0.012789 -0.011549
v -0.008747 0.012789 -0.011549
v -0.008747 0.012789 0.011549
v 0.008747 0.012789 0.011549
v -0.007779 0.012789 -0.000021
v 0.005800 0.012789 -0.000021
v -0.007779 0.014559 -0.000021
v 0.005800 0.014559 -0.000021
v -0.007779 0.014559 -0.011496
v 0.005800 0.014559 -0.011496
v -0.007779 0.012789 -0.011496
v 0.005800 0.012789 -0.011496
v -0.007440 0.014559 -0.000308
v 0.005460 0.014559 -0.000308
v 0.005460 0.014559 -0.011209
v -0.007440 0.014559 -0.011209
v -0.007440 0.014532 -0.000308
v 0.005460 0.014532 -0.000308
v 0.005460 0.014532 -0.011209
v -0.007440 0.014532 -0.011209
v 0.002857 0.012789 0.008875
v 0.002857 0.012789 0.006020
v 0.002857 0.014634 0.006020
v 0.002857 0.014634 0.008875
v 0.000188 0.014634 0.006020
v 0.000188 0.014634 0.008875
v 0.000188 0.012789 0.006020
v 0.000188 0.012789 0.008875
v 0.002857 0.012789 -0.007529
v 0.002857 0.012789 -0.010384
v 0.002857 0.014634 -0.007529
v 0.002857 0.014634 -0.010384
v 0.000188 0.014634 -0.007529
v 0.000188 0.014634 -0.010384
v 0.000188 0.012789 -0.007529
v 0.000188 0.012789 -0.010384
vt 1.815331 -2.236700
vt 1.815331 1.236700
vt -0.815331 1.236700
vt -0.815331 -2.236700
vt 0.000000 0.000000
vt 3.000000 0.000000
vt 3.000000 2.000000
vt 0.000000 2.000000
vt -2.236700 0.500000
vt 1.236700 0.500000
vt 1.236700 2.317335
vt -2.236700 2.317335
vt -0.815331 0.500000
vt 1.815331 0.500000
vt 1.815331 2.317335
vt -0.815331 2.317335
vt -0.236700 0.500000
vt 3.236700 0.500000
vt 3.236700 2.317335
vt -0.236700 2.317335
vt 1.749563 2.317335
vt -0.749564 2.317335
vt -0.749564 2.287335
vt 1.749563 2.287335
vt 3.149866 2.317335
vt -0.149866 2.317335
vt -0.149866 2.287335
vt 3.149866 2.287335
vt 2.000000 0.000000
vt 0.000000 0.000000
vt 0.000000 0.000000
vt 2.000000 0.000000
vt 1.149866 2.317335
vt -2.149866 2.317335
vt -2.149866 2.287335
vt 1.149866 2.287335
vn 1.000000 0.000000 0.000000
vn 1.000000 0.000000 0.000000
vn 1.000000 0.000000 0.000000
vn 1.000000 0.000000 0.000000
vn 0.000000 1.000000 0.000000
vn 0.000000 1.000000 0.000000
vn 0.000000 1.000000 0.000000
vn 0.000000 1.000000 0.000000
vn -1.000000 0.000000 0.000000
vn -1.000000 0.000000 0.000000
vn -1.000000 0.000000 0.000000
vn -1.000000 0.000000 0.000000
vn -0.000000 0.000000 -1.000000
vn -0.000000 0.000000 -1.000000
vn -0.000000 0.000000 -1.000000
vn -0.000000 0.000000 -1.000000
vn 0.000000 0.000000 1.000000
vn 0.000000 0.000000 1.000000
vn 0.000000 0.000000 1.000000
vn 0.000000 0.000000 1.000000
vn 0.000000 1.000000 0.000000
vn 0.000000 1.000000 0.000000
vn 0.000000 1.000000 0.000000
vn 0.000000 1.000000 0.000000
vn 0.000000 -1.000000 0.000000
vn 0.000000 -1.000000 0.000000
vn 0.000000 -1.000000 0.000000
vn 0.000000 -1.000000 0.000000
vn -0.000000 0.000000 -1.000000
vn -0.000000 0.000000 -1.000000
vn -0.000000 0.000000 -1.000000
vn -0.000000 0.000000 -1.000000
vn -1.000000 0.000000 0.000000
vn -1.000000 0.000000 0.000000
vn -1.000000 0.000000 0.000000
vn -1.000000 0.000000 0.000000
vn 0.000000 0.000000 1.000000
vn 0.000000 0.000000 1.000000
vn 0.000000 0.000000 1.000000
vn 0.000000 0.000000 1.000000
vn 1.000000 0.000000 0.000000
vn 1.000000 0.000000 0.000000
vn 1.000000 0.000000 0.000000
vn 1.000000 0.000000 0.000000
vn 0.000000 1.000000 -0.000001
vn 0.000000 1.000000 -0.000001
vn 0.000000 1.000000 -0.000001
vn 0.000000 1.000000 -0.000001
vn 0.000000 1.000000 -0.000001
vn 0.000000 1.000000 0.000001
vn 0.000000 1.000000 0.000001
vn 0.000000 1.000000 -0.000001
vn 0.000000 1.000000 0.000001
vn 0.000000 1.000000 0.000001
vn 0.000000 1.000000 0.000001
vn 0.000000 1.000000 0.000001
vn 0.000000 1.000000 0.000001
vn 0.000000 1.000000 -0.000001
vn 0.000000 1.000000 -0.000001
vn 0.000000 1.000000 0.000001
vn 0.000000 0.000000 1.000000
vn 0.000000 0.000000 1.000000
vn 0.000000 0.000000 1.000000
vn 0.000000 0.000000 1.000000
vn 1.000000 0.000000 0.000000
vn 1.000000 0.000000 0.000000
vn 1.000000 0.000000 0.000000
vn 1.000000 0.000000 0.000000
vn -0.000000 0.000000 -1.000000
vn -0.000000 0.000000 -1.000000
vn -0.000000 0.000000 -1.000000
vn -0.000000 0.000000 -1.000000
vn -1.000000 0.000000 0.000000
vn -1.000000 0.000000 0.000000
vn -1.000000 0.000000 0.000000
vn -1.000000 0.000000 0.000000
vn 0.000000 0.000000 1.000000
vn 0.000000 0.000000 1.000000
vn 0.000000 0.000000 1.000000
vn 0.000000 0.000000 1.000000
vn 0.000000 1.000000 0.000000
vn 0.000000 1.000000 0.000000
vn 0.000000 1.000000 0.000000
vn 0.000000 1.000000 0.000000
vn -0.000000 0.000000 -1.000000
vn -0.000000 0.000000 -1.000000
vn -0.000000 0.000000 -1.000000
vn -0.000000 0.000000 -1.000000
vn 1.000000 0.000000 0.000000
vn 1.000000 0.000000 0.000000
vn 1.000000 0.000000 0.000000
vn 1.000000 0.000000 0.000000
vn -1.000000 0.000000 0.000000
vn -1.000000 0.000000 0.000000
vn -1.000000 0.000000 0.000000
vn -1.000000 0.000000 0.000000
vn 0.000000 1.000000 -0.000001
vn 0.000000 1.000000 -0.000001
vn 0.000000 1.000000 -0.000001
vn 0.000000 1.000000 -0.000001
vn 0.000000 1.000000 -0.000001
vn 0.000000 1.000000 -0.000001
vn 0.000000 1.000000 -0.000001
vn 0.000000 1.000000 -0.000001
vn 0.000000 1.000000 -0.000001
vn 0.000000 1.000000 -0.000001
vn 0.000000 1.000000 -0.000001
vn 0.000000 1.000000 -0.000001
vn 0.000000 1.000000 -0.000001
vn 0.000000 1.000000 -0.000001
vn 0.000000 1.000000 -0.000001
vn 0.000000 1.000000 -0.000001
vn -0.000000 0.000000 -1.000000
vn -0.000000 0.000000 -1.000000
vn -0.000000 0.000000 -1.000000
vn -0.000000 0.000000 -1.000000
vn -1.000000 0.000000 0.000000
vn -1.000000 0.000000 0.000000
vn -1.000000 0.000000 0.000000
vn -1.000000 0.000000 0.000000
vn 0.000000 0.000000 1.000000
vn 0.000000 0.000000 1.000000
vn 0.000000 0.000000 1.000000
vn 0.000000 0.000000 1.000000
vn 1.000000 0.000000 0.000000
vn 1.000000 0.000000 0.000000
vn 1.000000 0.000000 0.000000
vn 1.000000 0.000000 0.000000
vn 1.000000 0.000000 0.000000
vn 1.000000 0.000000 0.000000
vn 1.000000 0.000000 0.000000
vn 1.000000 0.000000 0.000000
vn 0.000000 1.000000 0.000000
vn 0.000000 1.000000 0.000000
vn 0.000000 1.000000 0.000000
vn 0.000000 1.000000 0.000000
vn -1.000000 0.000000 0.000000
vn -1.000000 0.000000 0.000000
vn -1.000000 0.000000 0.000000
vn -1.000000 0.000000 0.000000
vn -0.000000 0.000000 -1.000000
vn -0.000000 0.000000 -1.000000
vn -0.000000 0.000000 -1.000000
vn -0.000000 0.000000 -1.000000
vn 0.000000 0.000000 1.000000
vn 0.000000 0.000000 1.000000
vn 0.000000 0.000000 1.000000
vn 0.000000 0.000000 1.000000
vn 1.000000 0.000000 0.000000
vn 1.000000 0.000000 0.000000
vn 1.000000 0.000000 0.000000
vn 1.000000 0.000000 0.000000
vn 0.000000 1.000000 0.000000
vn 0.000000 1.000000 0.000000
vn 0.000000 1.000000 0.000000
vn 0.000000 1.000000 0.000000
vn -1.000000 0.000000 0.000000
vn -1.000000 0.000000 0.000000
vn -1.000000 0.000000 0.000000
vn -1.000000 0.000000 0.000000
vn -0.000000 0.000000 -1.000000
vn -0.000000 0.000000 -1.000000
vn -0.000000 0.000000 -1.000000
vn -0.000000 0.000000 -1.000000
vn 0.000000 0.000000 1.000000
vn 0.000000 0.000000 1.000000
vn 0.000000 0.000000 1.000000
vn 0.000000 0.000000 1.000000
s off
g low3:polySurface18
usemtl low3:initialShadingGroup
f 1/1/1 2/2/2 4/3/3 3/4/4
f 3/5/5 4/6/6 6/7/7 5/8/8
f 5/9/9 6/10/10 8/11/11 7/12/12
f 2/13/13 8/14/14 6/15/15 4/16/16
f 7/17/17 1/18/18 3/19/19 5/20/20
f 21//21 22//22 23//23 24//24
f 9//25 12//26 11//27 10//28
f 9//29 10//30 14//31 13//32
f 10//33 11//34 15//35 14//36
f 11/21/37 12/22/38 16/23/39 15/24/40
f 12/25/41 9/26/42 13/27/43 16/28/44
f 13/29/45 14/30/46 18/31/47 17/32/48
f 14/33/49 15/34/50 19/35/51 18/36/52
f 15//53 16//54 20//55 19//56
f 16//57 13//58 17//59 20//60
f 17//61 18//62 22//63 21//64
f 18//65 19//66 23//67 22//68
f 19//69 20//70 24//71 23//72
f 20//73 17//74 21//75 24//76
f 25//77 26//78 28//79 27//80
f 37//81 38//82 39//83 40//84
f 29//85 30//86 32//87 31//88
f 26//89 32//90 30//91 28//92
f 31//93 25//94 27//95 29//96
f 27//97 28//98 34//99 33//100
f 28//101 30//102 35//103 34//104
f 30//105 29//106 36//107 35//108
f 29//109 27//110 33//111 36//112
f 33//113 34//114 38//115 37//116
f 34//117 35//118 39//119 38//120
f 35//121 36//122 40//123 39//124
f 36//125 33//126 37//127 40//128
f 41//129 42//130 43//131 44//132
f 44//133 43//134 45//135 46//136
f 46//137 45//138 47//139 48//140
f 42//141 47//142 45//143 43//144
f 48//145 41//146 44//147 46//148
f 49//149 50//150 52//151 51//152
f 51//153 52//154 54//155 53//156
f 53//157 54//158 56//159 55//160
f 50//161 56//162 54//163 52//164
f 55//165 49//166 51//167 53//168
