# This file uses centimeters as units for non-parametric coordinates.

mtllib low1.mtl
g default
v 0.002857 0.005333 0.000673
v 0.002857 0.005333 -0.002182
v 0.002857 0.007178 0.000673
v 0.002857 0.007178 -0.002182
v 0.000188 0.007178 0.000673
v 0.000188 0.007178 -0.002182
v 0.000188 0.005333 0.000673
v 0.000188 0.005333 -0.002182
v 0.009207 -0.007178 -0.012157
v -0.009207 -0.007178 -0.012157
v -0.009207 -0.007178 0.012157
v 0.009207 -0.007178 0.012157
v 0.009207 0.005543 -0.012157
v -0.009207 0.005543 -0.012157
v -0.009207 0.005543 0.012157
v 0.009207 0.005543 0.012157
v 0.008747 0.005543 -0.011549
v -0.008747 0.005543 -0.011549
v -0.008747 0.005543 0.011549
v 0.008747 0.005543 0.011549
v 0.008747 0.005333 -0.011549
v -0.008747 0.005333 -0.011549
v -0.008747 0.005333 0.011549
v 0.008747 0.005333 0.011549
v -0.007779 0.005333 -0.000021
v 0.005800 0.005333 -0.000021
v -0.007779 0.007103 -0.000021
v 0.005800 0.007103 -0.000021
v -0.007779 0.007103 -0.011496
v 0.005800 0.007103 -0.011496
v -0.007779 0.005333 -0.011496
v 0.005800 0.005333 -0.011496
v -0.007440 0.007103 -0.000308
v 0.005460 0.007103 -0.000308
v 0.005460 0.007103 -0.011209
v -0.007440 0.007103 -0.011209
v -0.007440 0.007076 -0.000308
v 0.005460 0.007076 -0.000308
v 0.005460 0.007076 -0.011209
v -0.007440 0.007076 -0.011209
v 0.002857 0.005333 0.008875
v 0.002857 0.005333 0.006020
v 0.002857 0.007178 0.006020
v 0.002857 0.007178 0.008875
v 0.000188 0.007178 0.006020
v 0.000188 0.007178 0.008875
v 0.000188 0.005333 0.006020
v 0.000188 0.005333 0.008875
v 0.002857 0.005333 -0.007529
v 0.002857 0.005333 -0.010384
v 0.002857 0.007178 -0.007529
v 0.002857 0.007178 -0.010384
v 0.000188 0.007178 -0.007529
v 0.000188 0.007178 -0.010384
v 0.000188 0.005333 -0.007529
v 0.000188 0.005333 -0.010384
vt 1.815331 -2.236700
vt 1.815331 1.236700
vt -0.815331 1.236700
vt -0.815331 -2.236700
vt 0.000000 0.000000
vt 3.000000 0.000000
vt 3.000000 2.000000
vt 0.000000 2.000000
vt -2.236700 0.500000
vt 1.236700 0.500000
vt 1.236700 2.317335
vt -2.236700 2.317335
vt -0.815331 0.500000
vt 1.815331 0.500000
vt 1.815331 2.317335
vt -0.815331 2.317335
vt -0.236700 0.500000
vt 3.236700 0.500000
vt 3.236700 2.317335
vt -0.236700 2.317335
vt 1.749563 2.317335
vt -0.749564 2.317335
vt -0.749564 2.287335
vt 1.749563 2.287335
vt 3.149866 2.317335
vt -0.149866 2.317335
vt -0.149866 2.287335
vt 3.149866 2.287335
vt 2.000000 0.000000
vt 0.000000 0.000000
vt 0.000000 0.000000
vt 2.000000 0.000000
vt 1.149866 2.317335
vt -2.149866 2.317335
vt -2.149866 2.287335
vt 1.149866 2.287335
vn 1.000000 0.000000 0.000000
vn 1.000000 0.000000 0.000000
vn 1.000000 0.000000 0.000000
vn 1.000000 0.000000 0.000000
vn 0.000000 1.000000 -0.000000
vn 0.000000 1.000000 -0.000000
vn 0.000000 1.000000 -0.000000
vn 0.000000 1.000000 -0.000000
vn -1.000000 0.000000 0.000000
vn -1.000000 0.000000 0.000000
vn -1.000000 0.000000 0.000000
vn -1.000000 0.000000 0.000000
vn -0.000000 0.000000 -1.000000
vn -0.000000 0.000000 -1.000000
vn -0.000000 0.000000 -1.000000
vn -0.000000 0.000000 -1.000000
vn 0.000000 0.000000 1.000000
vn 0.000000 0.000000 1.000000
vn 0.000000 0.000000 1.000000
vn 0.000000 0.000000 1.000000
vn 0.000000 1.000000 -0.000000
vn 0.000000 1.000000 -0.000000
vn 0.000000 1.000000 -0.000000
vn 0.000000 1.000000 -0.000000
vn -0.000000 -1.000000 0.000000
vn -0.000000 -1.000000 0.000000
vn -0.000000 -1.000000 0.000000
vn -0.000000 -1.000000 0.000000
vn -0.000000 0.000000 -1.000000
vn -0.000000 0.000000 -1.000000
vn -0.000000 0.000000 -1.000000
vn -0.000000 0.000000 -1.000000
vn -1.000000 0.000000 0.000000
vn -1.000000 0.000000 0.000000
vn -1.000000 0.000000 0.000000
vn -1.000000 0.000000 0.000000
vn 0.000000 0.000000 1.000000
vn 0.000000 0.000000 1.000000
vn 0.000000 0.000000 1.000000
vn 0.000000 0.000000 1.000000
vn 1.000000 0.000000 0.000000
vn 1.000000 0.000000 0.000000
vn 1.000000 0.000000 0.000000
vn 1.000000 0.000000 0.000000
vn 0.000000 1.000000 -0.000001
vn 0.000000 1.000000 -0.000001
vn 0.000000 1.000000 -0.000001
vn 0.000000 1.000000 -0.000001
vn 0.000000 1.000000 0.000001
vn 0.000000 1.000000 0.000001
vn 0.000000 1.000000 0.000001
vn 0.000000 1.000000 0.000001
vn 0.000000 0.000000 1.000000
vn 0.000000 0.000000 1.000000
vn 0.000000 0.000000 1.000000
vn 0.000000 0.000000 1.000000
vn 1.000000 0.000000 0.000000
vn 1.000000 0.000000 0.000000
vn 1.000000 0.000000 0.000000
vn 1.000000 0.000000 0.000000
vn -0.000000 0.000000 -1.000000
vn -0.000000 0.000000 -1.000000
vn -0.000000 0.000000 -1.000000
vn -0.000000 0.000000 -1.000000
vn -1.000000 0.000000 0.000000
vn -1.000000 0.000000 0.000000
vn -1.000000 0.000000 0.000000
vn -1.000000 0.000000 0.000000
vn 0.000000 0.000000 1.000000
vn 0.000000 0.000000 1.000000
vn 0.000000 0.000000 1.000000
vn 0.000000 0.000000 1.000000
vn 0.000000 1.000000 -0.000000
vn 0.000000 1.000000 -0.000000
vn 0.000000 1.000000 -0.000000
vn 0.000000 1.000000 -0.000000
vn -0.000000 0.000000 -1.000000
vn -0.000000 0.000000 -1.000000
vn -0.000000 0.000000 -1.000000
vn -0.000000 0.000000 -1.000000
vn 1.000000 0.000000 0.000000
vn 1.000000 0.000000 0.000000
vn 1.000000 0.000000 0.000000
vn 1.000000 0.000000 0.000000
vn -1.000000 0.000000 0.000000
vn -1.000000 0.000000 0.000000
vn -1.000000 0.000000 0.000000
vn -1.000000 0.000000 0.000000
vn 0.000000 1.000000 -0.000001
vn 0.000000 1.000000 -0.000001
vn 0.000000 1.000000 -0.000001
vn 0.000000 1.000000 -0.000001
vn 0.000000 1.000000 -0.000001
vn 0.000000 1.000000 -0.000001
vn 0.000000 1.000000 -0.000001
vn 0.000000 1.000000 -0.000001
vn -0.000000 0.000000 -1.000000
vn -0.000000 0.000000 -1.000000
vn -0.000000 0.000000 -1.000000
vn -0.000000 0.000000 -1.000000
vn -1.000000 0.000000 0.000000
vn -1.000000 0.000000 0.000000
vn -1.000000 0.000000 0.000000
vn -1.000000 0.000000 0.000000
vn 0.000000 0.000000 1.000000
vn 0.000000 0.000000 1.000000
vn 0.000000 0.000000 1.000000
vn 0.000000 0.000000 1.000000
vn 1.000000 0.000000 0.000000
vn 1.000000 0.000000 0.000000
vn 1.000000 0.000000 0.000000
vn 1.000000 0.000000 0.000000
vn 1.000000 0.000000 0.000000
vn 1.000000 0.000000 0.000000
vn 1.000000 0.000000 0.000000
vn 1.000000 0.000000 0.000000
vn 0.000000 1.000000 -0.000000
vn 0.000000 1.000000 -0.000000
vn 0.000000 1.000000 -0.000000
vn 0.000000 1.000000 -0.000000
vn -1.000000 0.000000 0.000000
vn -1.000000 0.000000 0.000000
vn -1.000000 0.000000 0.000000
vn -1.000000 0.000000 0.000000
vn -0.000000 0.000000 -1.000000
vn -0.000000 0.000000 -1.000000
vn -0.000000 0.000000 -1.000000
vn -0.000000 0.000000 -1.000000
vn 0.000000 0.000000 1.000000
vn 0.000000 0.000000 1.000000
vn 0.000000 0.000000 1.000000
vn 0.000000 0.000000 1.000000
vn 1.000000 0.000000 0.000000
vn 1.000000 0.000000 0.000000
vn 1.000000 0.000000 0.000000
vn 1.000000 0.000000 0.000000
vn 0.000000 1.000000 -0.000000
vn 0.000000 1.000000 -0.000000
vn 0.000000 1.000000 -0.000000
vn 0.000000 1.000000 -0.000000
vn -1.000000 0.000000 0.000000
vn -1.000000 0.000000 0.000000
vn -1.000000 0.000000 0.000000
vn -1.000000 0.000000 0.000000
vn -0.000000 0.000000 -1.000000
vn -0.000000 0.000000 -1.000000
vn -0.000000 0.000000 -1.000000
vn -0.000000 0.000000 -1.000000
vn 0.000000 0.000000 1.000000
vn 0.000000 0.000000 1.000000
vn 0.000000 0.000000 1.000000
vn 0.000000 0.000000 1.000000
s off
g polySurface18
usemtl initialShadingGroup
f 1//1 2//2 4//3 3//4
f 3//5 4//6 6//7 5//8
f 5//9 6//10 8//11 7//12
f 2//13 8//14 6//15 4//16
f 7//17 1//18 3//19 5//20
f 21//21 22//22 23//23 24//24
f 9/1/25 12/2/26 11/3/27 10/4/28
f 9/5/29 10/6/30 14/7/31 13/8/32
f 10/9/33 11/10/34 15/11/35 14/12/36
f 11/13/37 12/14/38 16/15/39 15/16/40
f 12/17/41 9/18/42 13/19/43 16/20/44
s 1
f 13//45 14//46 18//47 17//48
f 14//46 15//49 19//50 18//47
f 15//49 16//51 20//52 19//50
f 16//51 13//45 17//48 20//52
s off
f 17/21/53 18/22/54 22/23/55 21/24/56
f 18/25/57 19/26/58 23/27/59 22/28/60
f 19/29/61 20/30/62 24/31/63 23/32/64
f 20/33/65 17/34/66 21/35/67 24/36/68
f 25//69 26//70 28//71 27//72
f 37//73 38//74 39//75 40//76
f 29//77 30//78 32//79 31//80
f 26//81 32//82 30//83 28//84
f 31//85 25//86 27//87 29//88
s 2
f 27//89 28//90 34//91 33//92
f 28//90 30//93 35//94 34//91
f 30//93 29//95 36//96 35//94
f 29//95 27//89 33//92 36//96
s off
f 33//97 34//98 38//99 37//100
f 34//101 35//102 39//103 38//104
f 35//105 36//106 40//107 39//108
f 36//109 33//110 37//111 40//112
f 41//113 42//114 43//115 44//116
f 44//117 43//118 45//119 46//120
f 46//121 45//122 47//123 48//124
f 42//125 47//126 45//127 43//128
f 48//129 41//130 44//131 46//132
f 49//133 50//134 52//135 51//136
f 51//137 52//138 54//139 53//140
f 53//141 54//142 56//143 55//144
f 50//145 56//146 54//147 52//148
f 55//149 49//150 51//151 53//152
