# This file uses centimeters as units for non-parametric coordinates.

mtllib low2.mtl
g default
v 0.008433 0.004902 0.000315
v 0.008433 0.004902 -0.002139
v 0.008433 0.004902 -0.004593
v 0.008433 0.006944 0.000315
v 0.008433 0.006944 -0.002139
v 0.008433 0.006944 -0.004593
v 0.001501 0.006944 0.000315
v 0.001501 0.006944 -0.002139
v 0.001501 0.006944 -0.004593
v -0.000427 0.006944 0.000315
v -0.000427 0.006944 -0.002139
v -0.000427 0.006944 -0.004593
v -0.000427 0.004902 0.000315
v -0.000427 0.004902 -0.002139
v -0.000427 0.004902 -0.004593
v 0.001501 0.004902 0.000315
v 0.001501 0.004902 -0.004593
v 0.001501 0.004902 0.008209
v 0.008433 0.004902 0.008209
v 0.008433 0.006944 0.008209
v 0.001501 0.006944 0.008209
v -0.004790 0.004902 0.009017
v 0.008559 0.004902 0.009017
v -0.004790 0.006399 0.009017
v 0.008559 0.006399 0.009017
v -0.004790 0.006399 -0.002130
v 0.008559 0.006399 -0.002130
v -0.004790 0.004902 -0.002130
v 0.008559 0.004902 -0.002130
v -0.004456 0.006399 0.008738
v 0.008225 0.006399 0.008738
v 0.008225 0.006399 -0.001851
v -0.004456 0.006399 -0.001851
v -0.004456 0.006376 0.008738
v 0.008225 0.006376 0.008738
v 0.008225 0.006376 -0.001851
v -0.004456 0.006376 -0.001851
v 0.010243 -0.006944 0.000558
v 0.010243 -0.006944 -0.000558
v 0.010243 0.004993 -0.000558
v 0.010243 0.004993 0.000558
v -0.010243 0.004993 -0.000558
v -0.010243 0.004993 0.000558
v -0.010243 -0.006944 -0.000558
v -0.010243 -0.006944 0.000558
v 0.010243 -0.006944 -0.009593
v 0.010243 -0.006944 -0.010709
v 0.010243 0.004993 -0.010709
v 0.010243 0.004993 -0.009593
v -0.010243 0.004993 -0.010709
v -0.010243 0.004993 -0.009593
v -0.010243 -0.006944 -0.010709
v -0.010243 -0.006944 -0.009593
v 0.010243 -0.006944 -0.012976
v 0.010243 -0.006944 -0.014093
v 0.010243 0.004993 -0.014093
v 0.010243 0.004993 -0.012976
v -0.010243 0.004993 -0.014093
v -0.010243 0.004993 -0.012976
v -0.010243 -0.006944 -0.014093
v -0.010243 -0.006944 -0.012976
v 0.010243 -0.006944 -0.006209
v 0.010243 -0.006944 -0.007325
v 0.010243 0.004993 -0.007325
v 0.010243 0.004993 -0.006209
v -0.010243 0.004993 -0.007325
v -0.010243 0.004993 -0.006209
v -0.010243 -0.006944 -0.007325
v -0.010243 -0.006944 -0.006209
v 0.010243 -0.006944 -0.002826
v 0.010243 -0.006944 -0.003942
v 0.010243 0.004993 -0.003942
v 0.010243 0.004993 -0.002826
v -0.010243 0.004993 -0.003942
v -0.010243 0.004993 -0.002826
v -0.010243 -0.006944 -0.003942
v -0.010243 -0.006944 -0.002826
v 0.009755 -0.006944 -0.013535
v -0.009755 -0.006944 -0.013535
v -0.009755 -0.006944 0.013535
v 0.009755 -0.006944 0.013535
v 0.009755 0.005112 -0.013535
v -0.009755 0.005112 -0.013535
v -0.009755 0.005112 0.013535
v 0.009755 0.005112 0.013535
v 0.009267 0.005112 -0.012858
v -0.009267 0.005112 -0.012858
v -0.009267 0.005112 0.012858
v 0.009267 0.005112 0.012858
v 0.009267 0.004902 -0.012858
v -0.009267 0.004902 -0.012858
v -0.009267 0.004902 0.012858
v 0.009267 0.004902 0.012858
v 0.010243 -0.006944 0.014093
v 0.010243 -0.006944 0.012976
v 0.010243 0.004993 0.014093
v 0.010243 0.004993 0.012976
v -0.010243 0.004993 0.014093
v -0.010243 0.004993 0.012976
v -0.010243 -0.006944 0.014093
v -0.010243 -0.006944 0.012976
v 0.010243 -0.006944 0.003942
v 0.010243 -0.006944 0.002826
v 0.010243 0.004993 0.002826
v 0.010243 0.004993 0.003942
v -0.010243 0.004993 0.002826
v -0.010243 0.004993 0.003942
v -0.010243 -0.006944 0.002826
v -0.010243 -0.006944 0.003942
v 0.010243 -0.006944 0.007325
v 0.010243 -0.006944 0.006209
v 0.010243 0.004993 0.006209
v 0.010243 0.004993 0.007325
v -0.010243 0.004993 0.006209
v -0.010243 0.004993 0.007325
v -0.010243 -0.006944 0.006209
v -0.010243 -0.006944 0.007325
v 0.010243 -0.006944 0.010709
v 0.010243 -0.006944 0.009593
v 0.010243 0.004993 0.010709
v 0.010243 0.004993 0.009593
v -0.010243 0.004993 0.010709
v -0.010243 0.004993 0.009593
v -0.010243 -0.006944 0.010709
v -0.010243 -0.006944 0.009593
vt 1.893539 -2.433503
vt 1.893539 1.433503
vt -0.893539 1.433503
vt -0.893539 -2.433503
vt 0.000000 0.000000
vt 3.000000 0.000000
vt 3.000000 2.000000
vt 0.000000 2.000000
vt -2.433503 0.500000
vt 1.433503 0.500000
vt 1.433503 2.222285
vt -2.433503 2.222285
vt -0.893539 0.500000
vt 1.893539 0.500000
vt 1.893539 2.222285
vt -0.893539 2.222285
vt -0.433503 0.500000
vt 3.433503 0.500000
vt 3.433503 2.222285
vt -0.433503 2.222285
vt 1.823862 2.222285
vt -0.823862 2.222285
vt -0.823862 2.192285
vt 1.823862 2.192285
vt 3.336827 2.222285
vt -0.336827 2.222285
vt -0.336827 2.192285
vt 3.336827 2.192285
vt 3.000000 0.000000
vt 0.000000 0.000000
vt 0.000000 0.000000
vt 3.000000 0.000000
vt 1.336827 2.222285
vt -2.336827 2.222285
vt -2.336827 2.192285
vt 1.336827 2.192285
vn 1.000000 0.000000 0.000000
vn 1.000000 0.000000 0.000000
vn 1.000000 0.000000 0.000000
vn 1.000000 0.000000 0.000000
vn 1.000000 0.000000 0.000000
vn 1.000000 0.000000 0.000000
vn -0.000000 1.000000 0.000000
vn -0.000000 1.000000 0.000000
vn -0.000000 1.000000 0.000000
vn -0.000000 1.000000 0.000000
vn -0.000000 1.000000 0.000000
vn -0.000000 1.000000 0.000000
vn -0.000000 1.000000 0.000000
vn -0.000000 1.000000 0.000000
vn -0.000000 1.000000 0.000000
vn -1.000000 0.000000 0.000000
vn -1.000000 0.000000 0.000000
vn -1.000000 0.000000 0.000000
vn -1.000000 0.000000 0.000000
vn -1.000000 0.000000 0.000000
vn -1.000000 0.000000 0.000000
vn -0.000000 0.000000 -1.000000
vn -0.000000 0.000000 -1.000000
vn -0.000000 0.000000 -1.000000
vn -0.000000 0.000000 -1.000000
vn -0.000000 0.000000 -1.000000
vn -0.000000 0.000000 -1.000000
vn 0.000000 0.000000 1.000000
vn 0.000000 0.000000 1.000000
vn 0.000000 0.000000 1.000000
vn 0.000000 0.000000 1.000000
vn 0.000000 0.000000 1.000000
vn 0.000000 0.000000 1.000000
vn 0.000000 0.000000 1.000000
vn 0.000000 0.000000 1.000000
vn 0.000000 -1.000000 -0.000000
vn 0.000000 -1.000000 -0.000000
vn 0.000000 -1.000000 -0.000000
vn 0.000000 -1.000000 -0.000000
vn 1.000000 0.000000 0.000000
vn 1.000000 0.000000 0.000000
vn -0.000000 1.000000 0.000000
vn -0.000000 1.000000 0.000000
vn -1.000000 0.000000 0.000000
vn -1.000000 0.000000 0.000000
vn -1.000000 0.000000 0.000000
vn -1.000000 0.000000 0.000000
vn 0.000000 0.000000 1.000000
vn 0.000000 0.000000 1.000000
vn 0.000000 0.000000 1.000000
vn 0.000000 0.000000 1.000000
vn -0.000000 1.000000 0.000000
vn -0.000000 1.000000 0.000000
vn -0.000000 1.000000 0.000000
vn -0.000000 1.000000 0.000000
vn -0.000000 0.000000 -1.000000
vn -0.000000 0.000000 -1.000000
vn -0.000000 0.000000 -1.000000
vn -0.000000 0.000000 -1.000000
vn 1.000000 0.000000 0.000000
vn 1.000000 0.000000 0.000000
vn 1.000000 0.000000 0.000000
vn 1.000000 0.000000 0.000000
vn -1.000000 0.000000 0.000000
vn -1.000000 0.000000 0.000000
vn -1.000000 0.000000 0.000000
vn -1.000000 0.000000 0.000000
vn -0.000000 1.000000 -0.000001
vn -0.000000 1.000000 -0.000001
vn -0.000000 1.000000 -0.000001
vn -0.000000 1.000000 -0.000001
vn -0.000000 1.000000 0.000001
vn -0.000000 1.000000 0.000001
vn -0.000000 1.000000 0.000001
vn -0.000000 1.000000 0.000001
vn -0.000000 0.000000 -1.000000
vn -0.000000 0.000000 -1.000000
vn -0.000000 0.000000 -1.000000
vn -0.000000 0.000000 -1.000000
vn -1.000000 0.000000 0.000000
vn -1.000000 0.000000 0.000000
vn -1.000000 0.000000 0.000000
vn -1.000000 0.000000 0.000000
vn 0.000000 0.000000 1.000000
vn 0.000000 0.000000 1.000000
vn 0.000000 0.000000 1.000000
vn 0.000000 0.000000 1.000000
vn 1.000000 0.000000 0.000000
vn 1.000000 0.000000 0.000000
vn 1.000000 0.000000 0.000000
vn 1.000000 0.000000 0.000000
vn 1.000000 0.000000 0.000000
vn 1.000000 0.000000 0.000000
vn 1.000000 0.000000 0.000000
vn 1.000000 0.000000 0.000000
vn -0.000000 1.000000 0.000000
vn -0.000000 1.000000 0.000000
vn -0.000000 1.000000 0.000000
vn -0.000000 1.000000 0.000000
vn -1.000000 0.000000 0.000000
vn -1.000000 0.000000 0.000000
vn -1.000000 0.000000 0.000000
vn -1.000000 0.000000 0.000000
vn -0.000000 0.000000 -1.000000
vn -0.000000 0.000000 -1.000000
vn -0.000000 0.000000 -1.000000
vn -0.000000 0.000000 -1.000000
vn 0.000000 0.000000 1.000000
vn 0.000000 0.000000 1.000000
vn 0.000000 0.000000 1.000000
vn 0.000000 0.000000 1.000000
vn 1.000000 0.000000 0.000000
vn 1.000000 0.000000 0.000000
vn 1.000000 0.000000 0.000000
vn 1.000000 0.000000 0.000000
vn -0.000000 1.000000 0.000000
vn -0.000000 1.000000 0.000000
vn -0.000000 1.000000 0.000000
vn -0.000000 1.000000 0.000000
vn -1.000000 0.000000 0.000000
vn -1.000000 0.000000 0.000000
vn -1.000000 0.000000 0.000000
vn -1.000000 0.000000 0.000000
vn -0.000000 0.000000 -1.000000
vn -0.000000 0.000000 -1.000000
vn -0.000000 0.000000 -1.000000
vn -0.000000 0.000000 -1.000000
vn 0.000000 0.000000 1.000000
vn 0.000000 0.000000 1.000000
vn 0.000000 0.000000 1.000000
vn 0.000000 0.000000 1.000000
vn 1.000000 0.000000 0.000000
vn 1.000000 0.000000 0.000000
vn 1.000000 0.000000 0.000000
vn 1.000000 0.000000 0.000000
vn -0.000000 1.000000 0.000000
vn -0.000000 1.000000 0.000000
vn -0.000000 1.000000 0.000000
vn -0.000000 1.000000 0.000000
vn -1.000000 0.000000 0.000000
vn -1.000000 0.000000 0.000000
vn -1.000000 0.000000 0.000000
vn -1.000000 0.000000 0.000000
vn -0.000000 0.000000 -1.000000
vn -0.000000 0.000000 -1.000000
vn -0.000000 0.000000 -1.000000
vn -0.000000 0.000000 -1.000000
vn 0.000000 0.000000 1.000000
vn 0.000000 0.000000 1.000000
vn 0.000000 0.000000 1.000000
vn 0.000000 0.000000 1.000000
vn 1.000000 0.000000 0.000000
vn 1.000000 0.000000 0.000000
vn 1.000000 0.000000 0.000000
vn 1.000000 0.000000 0.000000
vn -0.000000 1.000000 0.000000
vn -0.000000 1.000000 0.000000
vn -0.000000 1.000000 0.000000
vn -0.000000 1.000000 0.000000
vn -1.000000 0.000000 0.000000
vn -1.000000 0.000000 0.000000
vn -1.000000 0.000000 0.000000
vn -1.000000 0.000000 0.000000
vn -0.000000 0.000000 -1.000000
vn -0.000000 0.000000 -1.000000
vn -0.000000 0.000000 -1.000000
vn -0.000000 0.000000 -1.000000
vn 0.000000 0.000000 1.000000
vn 0.000000 0.000000 1.000000
vn 0.000000 0.000000 1.000000
vn 0.000000 0.000000 1.000000
vn 1.000000 0.000000 0.000000
vn 1.000000 0.000000 0.000000
vn 1.000000 0.000000 0.000000
vn 1.000000 0.000000 0.000000
vn -0.000000 1.000000 0.000000
vn -0.000000 1.000000 0.000000
vn -0.000000 1.000000 0.000000
vn -0.000000 1.000000 0.000000
vn -1.000000 0.000000 0.000000
vn -1.000000 0.000000 0.000000
vn -1.000000 0.000000 0.000000
vn -1.000000 0.000000 0.000000
vn -0.000000 0.000000 -1.000000
vn -0.000000 0.000000 -1.000000
vn -0.000000 0.000000 -1.000000
vn -0.000000 0.000000 -1.000000
vn 0.000000 0.000000 1.000000
vn 0.000000 0.000000 1.000000
vn 0.000000 0.000000 1.000000
vn 0.000000 0.000000 1.000000
vn -0.000000 1.000000 0.000000
vn -0.000000 1.000000 0.000000
vn -0.000000 1.000000 0.000000
vn -0.000000 1.000000 0.000000
vn 0.000000 -1.000000 -0.000000
vn 0.000000 -1.000000 -0.000000
vn 0.000000 -1.000000 -0.000000
vn 0.000000 -1.000000 -0.000000
vn -0.000000 0.000000 -1.000000
vn -0.000000 0.000000 -1.000000
vn -0.000000 0.000000 -1.000000
vn -0.000000 0.000000 -1.000000
vn -1.000000 0.000000 0.000000
vn -1.000000 0.000000 0.000000
vn -1.000000 0.000000 0.000000
vn -1.000000 0.000000 0.000000
vn 0.000000 0.000000 1.000000
vn 0.000000 0.000000 1.000000
vn 0.000000 0.000000 1.000000
vn 0.000000 0.000000 1.000000
vn 1.000000 0.000000 0.000000
vn 1.000000 0.000000 0.000000
vn 1.000000 0.000000 0.000000
vn 1.000000 0.000000 0.000000
vn -0.000000 1.000000 0.000000
vn -0.000000 1.000000 0.000000
vn -0.000000 1.000000 0.000000
vn -0.000000 1.000000 0.000000
vn -0.000000 1.000000 0.000000
vn -0.000000 1.000000 0.000000
vn -0.000000 1.000000 0.000000
vn -0.000000 1.000000 0.000000
vn 0.000000 0.000000 1.000000
vn 0.000000 0.000000 1.000000
vn 0.000000 0.000000 1.000000
vn 0.000000 0.000000 1.000000
vn 1.000000 0.000000 0.000000
vn 1.000000 0.000000 0.000000
vn 1.000000 0.000000 0.000000
vn 1.000000 0.000000 0.000000
vn -0.000000 0.000000 -1.000000
vn -0.000000 0.000000 -1.000000
vn -0.000000 0.000000 -1.000000
vn -0.000000 0.000000 -1.000000
vn -1.000000 0.000000 0.000000
vn -1.000000 0.000000 0.000000
vn -1.000000 0.000000 0.000000
vn -1.000000 0.000000 0.000000
vn 1.000000 0.000000 0.000000
vn 1.000000 0.000000 0.000000
vn 1.000000 0.000000 0.000000
vn 1.000000 0.000000 0.000000
vn -0.000000 1.000000 0.000000
vn -0.000000 1.000000 0.000000
vn -0.000000 1.000000 0.000000
vn -0.000000 1.000000 0.000000
vn -1.000000 0.000000 0.000000
vn -1.000000 0.000000 0.000000
vn -1.000000 0.000000 0.000000
vn -1.000000 0.000000 0.000000
vn -0.000000 0.000000 -1.000000
vn -0.000000 0.000000 -1.000000
vn -0.000000 0.000000 -1.000000
vn -0.000000 0.000000 -1.000000
vn 0.000000 0.000000 1.000000
vn 0.000000 0.000000 1.000000
vn 0.000000 0.000000 1.000000
vn 0.000000 0.000000 1.000000
vn 1.000000 0.000000 0.000000
vn 1.000000 0.000000 0.000000
vn 1.000000 0.000000 0.000000
vn 1.000000 0.000000 0.000000
vn -0.000000 1.000000 0.000000
vn -0.000000 1.000000 0.000000
vn -0.000000 1.000000 0.000000
vn -0.000000 1.000000 0.000000
vn -1.000000 0.000000 0.000000
vn -1.000000 0.000000 0.000000
vn -1.000000 0.000000 0.000000
vn -1.000000 0.000000 0.000000
vn -0.000000 0.000000 -1.000000
vn -0.000000 0.000000 -1.000000
vn -0.000000 0.000000 -1.000000
vn -0.000000 0.000000 -1.000000
vn 0.000000 0.000000 1.000000
vn 0.000000 0.000000 1.000000
vn 0.000000 0.000000 1.000000
vn 0.000000 0.000000 1.000000
vn 1.000000 0.000000 0.000000
vn 1.000000 0.000000 0.000000
vn 1.000000 0.000000 0.000000
vn 1.000000 0.000000 0.000000
vn -0.000000 1.000000 0.000000
vn -0.000000 1.000000 0.000000
vn -0.000000 1.000000 0.000000
vn -0.000000 1.000000 0.000000
vn -1.000000 0.000000 0.000000
vn -1.000000 0.000000 0.000000
vn -1.000000 0.000000 0.000000
vn -1.000000 0.000000 0.000000
vn -0.000000 0.000000 -1.000000
vn -0.000000 0.000000 -1.000000
vn -0.000000 0.000000 -1.000000
vn -0.000000 0.000000 -1.000000
vn 0.000000 0.000000 1.000000
vn 0.000000 0.000000 1.000000
vn 0.000000 0.000000 1.000000
vn 0.000000 0.000000 1.000000
vn 1.000000 0.000000 0.000000
vn 1.000000 0.000000 0.000000
vn 1.000000 0.000000 0.000000
vn 1.000000 0.000000 0.000000
vn -0.000000 1.000000 0.000000
vn -0.000000 1.000000 0.000000
vn -0.000000 1.000000 0.000000
vn -0.000000 1.000000 0.000000
vn -1.000000 0.000000 0.000000
vn -1.000000 0.000000 0.000000
vn -1.000000 0.000000 0.000000
vn -1.000000 0.000000 0.000000
vn -0.000000 0.000000 -1.000000
vn -0.000000 0.000000 -1.000000
vn -0.000000 0.000000 -1.000000
vn -0.000000 0.000000 -1.000000
vn 0.000000 0.000000 1.000000
vn 0.000000 0.000000 1.000000
vn 0.000000 0.000000 1.000000
vn 0.000000 0.000000 1.000000
s 1
g polySurface76
usemtl initialShadingGroup
f 1//1 2//2 5//3 4//4
f 2//2 3//5 6//6 5//3
s 2
f 4//7 5//8 8//9 7//10
f 5//8 6//11 9//12 8//9
f 7//10 8//9 11//13 10//14
f 8//9 9//12 12//15 11//13
s 3
f 10//16 11//17 14//18 13//19
f 11//17 12//20 15//21 14//18
s 4
f 17//22 15//23 12//24 9//25
f 3//26 17//22 9//25 6//27
s off
f 13//28 16//29 7//30 10//31
f 18//32 19//33 20//34 21//35
f 16//36 1//37 19//38 18//39
s 1
f 1//1 4//4 20//40 19//41
s 2
f 4//7 7//10 21//42 20//43
s off
f 7//44 16//45 18//46 21//47
f 22//48 23//49 25//50 24//51
f 34//52 35//53 36//54 37//55
f 26//56 27//57 29//58 28//59
f 23//60 29//61 27//62 25//63
f 28//64 22//65 24//66 26//67
s 5
f 24//68 25//69 31//70 30//71
f 25//69 27//72 32//73 31//70
f 27//72 26//74 33//75 32//73
f 26//74 24//68 30//71 33//75
s off
f 30//76 31//77 35//78 34//79
f 31//80 32//81 36//82 35//83
f 32//84 33//85 37//86 36//87
f 33//88 30//89 34//90 37//91
f 38//92 39//93 40//94 41//95
f 41//96 40//97 42//98 43//99
f 43//100 42//101 44//102 45//103
f 39//104 44//105 42//106 40//107
f 45//108 38//109 41//110 43//111
f 46//112 47//113 48//114 49//115
f 49//116 48//117 50//118 51//119
f 51//120 50//121 52//122 53//123
f 47//124 52//125 50//126 48//127
f 53//128 46//129 49//130 51//131
f 54//132 55//133 56//134 57//135
f 57//136 56//137 58//138 59//139
f 59//140 58//141 60//142 61//143
f 55//144 60//145 58//146 56//147
f 61//148 54//149 57//150 59//151
f 62//152 63//153 64//154 65//155
f 65//156 64//157 66//158 67//159
f 67//160 66//161 68//162 69//163
f 63//164 68//165 66//166 64//167
f 69//168 62//169 65//170 67//171
f 70//172 71//173 72//174 73//175
f 73//176 72//177 74//178 75//179
f 75//180 74//181 76//182 77//183
f 71//184 76//185 74//186 72//187
f 77//188 70//189 73//190 75//191
f 90//192 91//193 92//194 93//195
f 78/1/196 81/2/197 80/3/198 79/4/199
f 78/5/200 79/6/201 83/7/202 82/8/203
f 79/9/204 80/10/205 84/11/206 83/12/207
f 80/13/208 81/14/209 85/15/210 84/16/211
f 81/17/212 78/18/213 82/19/214 85/20/215
s 6
f 82//216 83//217 87//218 86//219
f 83//217 84//220 88//221 87//218
f 84//220 85//222 89//223 88//221
f 85//222 82//216 86//219 89//223
s off
f 86/21/224 87/22/225 91/23/226 90/24/227
f 87/25/228 88/26/229 92/27/230 91/28/231
f 88/29/232 89/30/233 93/31/234 92/32/235
f 89/33/236 86/34/237 90/35/238 93/36/239
f 94//240 95//241 97//242 96//243
f 96//244 97//245 99//246 98//247
f 98//248 99//249 101//250 100//251
f 95//252 101//253 99//254 97//255
f 100//256 94//257 96//258 98//259
f 102//260 103//261 104//262 105//263
f 105//264 104//265 106//266 107//267
f 107//268 106//269 108//270 109//271
f 103//272 108//273 106//274 104//275
f 109//276 102//277 105//278 107//279
f 110//280 111//281 112//282 113//283
f 113//284 112//285 114//286 115//287
f 115//288 114//289 116//290 117//291
f 111//292 116//293 114//294 112//295
f 117//296 110//297 113//298 115//299
f 118//300 119//301 121//302 120//303
f 120//304 121//305 123//306 122//307
f 122//308 123//309 125//310 124//311
f 119//312 125//313 123//314 121//315
f 124//316 118//317 120//318 122//319
