# This file uses centimeters as units for non-parametric coordinates.

mtllib mid1.mtl
g default
v 0.003633 0.018084 -0.005728
v 0.003633 0.018084 -0.008041
v 0.001627 0.018084 -0.008041
v 0.001627 0.018084 -0.005728
v 0.003686 0.016539 -0.005667
v 0.003686 0.016539 -0.008102
v 0.003686 0.018108 -0.008102
v 0.003686 0.018108 -0.005667
v 0.001574 0.018108 -0.005667
v 0.001574 0.018108 -0.008102
v 0.001574 0.016539 -0.008102
v 0.001574 0.016539 -0.005667
v 0.003686 0.016539 0.000637
v 0.003686 0.016539 -0.001799
v 0.003686 0.018108 0.000637
v 0.003686 0.018108 -0.001799
v 0.001574 0.018108 0.000637
v 0.001574 0.018108 -0.001799
v 0.001574 0.016539 0.000637
v 0.001574 0.016539 -0.001799
v 0.003633 0.018108 0.000576
v 0.003633 0.018108 -0.001738
v 0.001627 0.018108 -0.001738
v 0.001627 0.018108 0.000576
v 0.003633 0.018084 0.000576
v 0.003633 0.018084 -0.001738
v 0.001627 0.018084 -0.001738
v 0.001627 0.018084 0.000576
v -0.000794 0.016539 0.000001
v 0.002151 0.016539 0.000001
v 0.005096 0.016539 0.000001
v -0.000794 0.017921 0.000001
v 0.002151 0.017921 0.000001
v 0.005096 0.017921 0.000001
v -0.000794 0.017921 -0.006144
v 0.002151 0.017921 -0.006144
v 0.005096 0.017921 -0.006144
v -0.000794 0.017921 -0.008270
v 0.002151 0.017921 -0.008270
v 0.005096 0.017921 -0.008270
v -0.000794 0.016539 -0.008270
v 0.002151 0.016539 -0.008270
v 0.005096 0.016539 -0.008270
v -0.000794 0.016539 -0.006144
v 0.005096 0.016539 -0.006144
v -0.008428 0.016539 -0.006144
v -0.008428 0.016539 0.000001
v -0.008428 0.017921 0.000001
v -0.008428 0.017921 -0.006144
v -0.002194 0.016539 -0.002345
v -0.007239 0.016539 -0.002345
v -0.007239 0.016539 0.002345
v -0.002194 0.016539 0.002345
v -0.002194 0.018224 -0.002345
v -0.007239 0.018224 -0.002345
v -0.007239 0.018224 0.002345
v -0.002194 0.018224 0.002345
v 0.008278 -0.018235 0.009329
v 0.009587 -0.018235 0.009329
v 0.009587 0.015929 0.009329
v 0.008278 0.015929 0.009329
v 0.009587 0.015929 -0.009329
v 0.008278 0.015929 -0.009329
v 0.009587 -0.018235 -0.009329
v 0.008278 -0.018235 -0.009329
v 0.002323 -0.018235 0.009329
v 0.003632 -0.018235 0.009329
v 0.003632 0.015929 0.009329
v 0.002323 0.015929 0.009329
v 0.003632 0.015929 -0.009329
v 0.002323 0.015929 -0.009329
v 0.003632 -0.018235 -0.009329
v 0.002323 -0.018235 -0.009329
v -0.003632 -0.018235 0.009329
v -0.002323 -0.018235 0.009329
v -0.003632 0.015929 0.009329
v -0.002323 0.015929 0.009329
v -0.003632 0.015929 -0.009329
v -0.002323 0.015929 -0.009329
v -0.003632 -0.018235 -0.009329
v -0.002323 -0.018235 -0.009329
v -0.009587 -0.018235 0.009329
v -0.008278 -0.018235 0.009329
v -0.009587 0.015929 0.009329
v -0.008278 0.015929 0.009329
v -0.009587 0.015929 -0.009329
v -0.008278 0.015929 -0.009329
v -0.009587 -0.018235 -0.009329
v -0.008278 -0.018235 -0.009329
v 0.008932 -0.018235 -0.008885
v -0.008932 -0.018235 -0.008885
v -0.008932 -0.018235 0.008885
v 0.008932 -0.018235 0.008885
v 0.008932 0.016689 -0.008885
v -0.008932 0.016689 -0.008885
v -0.008932 0.016689 0.008885
v 0.008932 0.016689 0.008885
v 0.008485 0.016689 -0.008440
v -0.008485 0.016689 -0.008440
v -0.008485 0.016689 0.008440
v 0.008485 0.016689 0.008440
v 0.008485 0.016539 -0.008440
v -0.008485 0.016539 -0.008440
v -0.008485 0.016539 0.008440
v 0.008485 0.016539 0.008440
v 0.002241 0.016539 0.003020
v 0.004821 0.016539 0.003020
v 0.007401 0.016539 0.003020
v 0.002241 0.018235 0.003020
v 0.004821 0.018235 0.003020
v 0.007401 0.018235 0.003020
v 0.002241 0.018235 -0.000311
v 0.004821 0.018235 -0.000311
v 0.007401 0.018235 -0.000311
v 0.002241 0.018235 -0.001649
v 0.004821 0.018235 -0.001649
v 0.007401 0.018235 -0.001649
v 0.002241 0.016539 -0.001649
v 0.004821 0.016539 -0.001649
v 0.007401 0.016539 -0.001649
v 0.002241 0.016539 -0.000311
v 0.007401 0.016539 -0.000311
v -0.007482 0.016539 -0.000311
v -0.007482 0.016539 0.003020
v -0.007482 0.018235 0.003020
v -0.007482 0.018235 -0.000311
v 0.003633 0.018084 0.006879
v 0.003633 0.018084 0.004566
v 0.001627 0.018084 0.004566
v 0.001627 0.018084 0.006879
v 0.003686 0.016539 0.006940
v 0.003686 0.016539 0.004505
v 0.003686 0.018108 0.004505
v 0.003686 0.018108 0.006940
v 0.001574 0.018108 0.006940
v 0.001574 0.018108 0.004505
v 0.001574 0.016539 0.004505
v 0.001574 0.016539 0.006940
vt 1.776013 -1.769219
vt 1.776013 0.769219
vt -0.776013 0.769219
vt -0.776013 -1.769219
vt 0.000000 0.000000
vt 3.000000 0.000000
vt 3.000000 7.000000
vt 0.000000 7.000000
vt -1.769219 0.500000
vt 0.769219 0.500000
vt 0.769219 7.484935
vt -1.769219 7.484935
vt -0.776013 0.500000
vt 1.776013 0.500000
vt 1.776013 7.484935
vt -0.776013 7.484935
vt 0.230781 0.500000
vt 2.769219 0.500000
vt 2.769219 7.484935
vt 0.230781 7.484935
vt 1.712213 7.484935
vt -0.712213 7.484935
vt -0.712213 7.454936
vt 1.712213 7.454936
vt 2.705758 7.484935
vt 0.294242 7.484935
vt 0.294242 7.454936
vt 2.705758 7.454936
vt 2.000000 0.000000
vt 0.000000 0.000000
vt 0.000000 0.000000
vt 2.000000 0.000000
vt 0.705758 7.484935
vt -1.705758 7.484935
vt -1.705758 7.454936
vt 0.705758 7.454936
vn 0.000000 1.000000 0.000000
vn 0.000000 1.000000 0.000000
vn 0.000000 1.000000 0.000000
vn 0.000000 1.000000 0.000000
vn 1.000000 0.000000 0.000000
vn 1.000000 0.000000 0.000000
vn 1.000000 0.000000 0.000000
vn 1.000000 0.000000 0.000000
vn -1.000000 0.000000 0.000000
vn -1.000000 0.000000 0.000000
vn -1.000000 0.000000 0.000000
vn -1.000000 0.000000 0.000000
vn 0.000000 0.000000 -1.000000
vn 0.000000 0.000000 -1.000000
vn 0.000000 0.000000 -1.000000
vn 0.000000 0.000000 -1.000000
vn 0.000000 0.000000 1.000000
vn 0.000000 0.000000 1.000000
vn 0.000000 0.000000 1.000000
vn 0.000000 0.000000 1.000000
vn 1.000000 0.000000 0.000000
vn 1.000000 0.000000 0.000000
vn 1.000000 0.000000 0.000000
vn 1.000000 0.000000 0.000000
vn 0.000000 1.000000 0.000000
vn 0.000000 1.000000 0.000000
vn 0.000000 1.000000 0.000000
vn 0.000000 1.000000 0.000000
vn -1.000000 0.000000 0.000000
vn -1.000000 0.000000 0.000000
vn -1.000000 0.000000 0.000000
vn -1.000000 0.000000 0.000000
vn 0.000000 0.000000 -1.000000
vn 0.000000 0.000000 -1.000000
vn 0.000000 0.000000 -1.000000
vn 0.000000 0.000000 -1.000000
vn 0.000000 0.000000 1.000000
vn 0.000000 0.000000 1.000000
vn 0.000000 0.000000 1.000000
vn 0.000000 0.000000 1.000000
vn 0.000000 1.000000 0.000028
vn 0.000000 1.000000 -0.000028
vn 0.000000 1.000000 -0.000025
vn 0.000000 1.000000 0.000025
vn 0.000000 1.000000 -0.000028
vn 0.000000 1.000000 -0.000025
vn 0.000000 1.000000 0.000028
vn 0.000000 1.000000 0.000025
vn -1.000000 0.000000 0.000000
vn -1.000000 0.000000 0.000000
vn -1.000000 0.000000 0.000000
vn -1.000000 0.000000 0.000000
vn 0.000000 0.000000 1.000000
vn 0.000000 0.000000 1.000000
vn 0.000000 0.000000 1.000000
vn 0.000000 0.000000 1.000000
vn 1.000000 0.000000 0.000000
vn 1.000000 0.000000 0.000000
vn 1.000000 0.000000 0.000000
vn 1.000000 0.000000 0.000000
vn 0.000000 0.000000 -1.000000
vn 0.000000 0.000000 -1.000000
vn 0.000000 0.000000 -1.000000
vn 0.000000 0.000000 -1.000000
vn 0.000000 0.000000 1.000000
vn 0.000000 0.000000 1.000000
vn 0.000000 0.000000 1.000000
vn 0.000000 0.000000 1.000000
vn 0.000000 0.000000 1.000000
vn 0.000000 0.000000 1.000000
vn 0.000000 1.000000 0.000000
vn 0.000000 1.000000 0.000000
vn 0.000000 1.000000 0.000000
vn 0.000000 1.000000 0.000000
vn 0.000000 1.000000 0.000000
vn 0.000000 1.000000 0.000000
vn 0.000000 1.000000 0.000000
vn 0.000000 1.000000 0.000000
vn 0.000000 1.000000 0.000000
vn 0.000000 0.000000 -1.000000
vn 0.000000 0.000000 -1.000000
vn 0.000000 0.000000 -1.000000
vn 0.000000 0.000000 -1.000000
vn 0.000000 0.000000 -1.000000
vn 0.000000 0.000000 -1.000000
vn 1.000000 0.000000 0.000000
vn 1.000000 0.000000 0.000000
vn 1.000000 0.000000 0.000000
vn 1.000000 0.000000 0.000000
vn 1.000000 0.000000 0.000000
vn 1.000000 0.000000 0.000000
vn -1.000000 0.000000 0.000000
vn -1.000000 0.000000 0.000000
vn -1.000000 0.000000 0.000000
vn -1.000000 0.000000 0.000000
vn -1.000000 0.000000 0.000000
vn -1.000000 0.000000 0.000000
vn -1.000000 0.000000 0.000000
vn -1.000000 0.000000 0.000000
vn 0.000000 -1.000000 0.000000
vn 0.000000 -1.000000 0.000000
vn 0.000000 -1.000000 0.000000
vn 0.000000 -1.000000 0.000000
vn 0.000000 0.000000 1.000000
vn 0.000000 0.000000 1.000000
vn 0.000000 1.000000 0.000000
vn 0.000000 1.000000 0.000000
vn 0.000000 0.000000 -1.000000
vn 0.000000 0.000000 -1.000000
vn 0.000000 0.000000 -1.000000
vn 0.000000 0.000000 -1.000000
vn 0.000000 1.000000 0.000000
vn 0.000000 1.000000 0.000000
vn 0.000000 1.000000 0.000000
vn 0.000000 1.000000 0.000000
vn 0.000000 -1.000000 0.000000
vn 0.000000 -1.000000 0.000000
vn 0.000000 -1.000000 0.000000
vn 0.000000 -1.000000 0.000000
vn 0.000000 0.000000 -1.000000
vn 0.000000 0.000000 -1.000000
vn 0.000000 0.000000 -1.000000
vn 0.000000 0.000000 -1.000000
vn -1.000000 0.000000 0.000000
vn -1.000000 0.000000 0.000000
vn -1.000000 0.000000 0.000000
vn -1.000000 0.000000 0.000000
vn 0.000000 0.000000 1.000000
vn 0.000000 0.000000 1.000000
vn 0.000000 0.000000 1.000000
vn 0.000000 0.000000 1.000000
vn 1.000000 0.000000 0.000000
vn 1.000000 0.000000 0.000000
vn 1.000000 0.000000 0.000000
vn 1.000000 0.000000 0.000000
vn 0.000000 0.000000 1.000000
vn 0.000000 0.000000 1.000000
vn 0.000000 0.000000 1.000000
vn 0.000000 0.000000 1.000000
vn 0.000000 1.000000 0.000000
vn 0.000000 1.000000 0.000000
vn 0.000000 1.000000 0.000000
vn 0.000000 1.000000 0.000000
vn 0.000000 0.000000 -1.000000
vn 0.000000 0.000000 -1.000000
vn 0.000000 0.000000 -1.000000
vn 0.000000 0.000000 -1.000000
vn 1.000000 0.000000 0.000000
vn 1.000000 0.000000 0.000000
vn 1.000000 0.000000 0.000000
vn 1.000000 0.000000 0.000000
vn -1.000000 0.000000 0.000000
vn -1.000000 0.000000 0.000000
vn -1.000000 0.000000 0.000000
vn -1.000000 0.000000 0.000000
vn 0.000000 0.000000 1.000000
vn 0.000000 0.000000 1.000000
vn 0.000000 0.000000 1.000000
vn 0.000000 0.000000 1.000000
vn 0.000000 1.000000 0.000000
vn 0.000000 1.000000 0.000000
vn 0.000000 1.000000 0.000000
vn 0.000000 1.000000 0.000000
vn 0.000000 0.000000 -1.000000
vn 0.000000 0.000000 -1.000000
vn 0.000000 0.000000 -1.000000
vn 0.000000 0.000000 -1.000000
vn 1.000000 0.000000 0.000000
vn 1.000000 0.000000 0.000000
vn 1.000000 0.000000 0.000000
vn 1.000000 0.000000 0.000000
vn -1.000000 0.000000 0.000000
vn -1.000000 0.000000 0.000000
vn -1.000000 0.000000 0.000000
vn -1.000000 0.000000 0.000000
vn 0.000000 0.000000 1.000000
vn 0.000000 0.000000 1.000000
vn 0.000000 0.000000 1.000000
vn 0.000000 0.000000 1.000000
vn 0.000000 1.000000 0.000000
vn 0.000000 1.000000 0.000000
vn 0.000000 1.000000 0.000000
vn 0.000000 1.000000 0.000000
vn 0.000000 0.000000 -1.000000
vn 0.000000 0.000000 -1.000000
vn 0.000000 0.000000 -1.000000
vn 0.000000 0.000000 -1.000000
vn 1.000000 0.000000 0.000000
vn 1.000000 0.000000 0.000000
vn 1.000000 0.000000 0.000000
vn 1.000000 0.000000 0.000000
vn -1.000000 0.000000 0.000000
vn -1.000000 0.000000 0.000000
vn -1.000000 0.000000 0.000000
vn -1.000000 0.000000 0.000000
vn 0.000000 0.000000 1.000000
vn 0.000000 0.000000 1.000000
vn 0.000000 0.000000 1.000000
vn 0.000000 0.000000 1.000000
vn 0.000000 1.000000 0.000000
vn 0.000000 1.000000 0.000000
vn 0.000000 1.000000 0.000000
vn 0.000000 1.000000 0.000000
vn 0.000000 0.000000 -1.000000
vn 0.000000 0.000000 -1.000000
vn 0.000000 0.000000 -1.000000
vn 0.000000 0.000000 -1.000000
vn 1.000000 0.000000 0.000000
vn 1.000000 0.000000 0.000000
vn 1.000000 0.000000 0.000000
vn 1.000000 0.000000 0.000000
vn -1.000000 0.000000 0.000000
vn -1.000000 0.000000 0.000000
vn -1.000000 0.000000 0.000000
vn -1.000000 0.000000 0.000000
vn 0.000000 1.000000 0.000000
vn 0.000000 1.000000 0.000000
vn 0.000000 1.000000 0.000000
vn 0.000000 1.000000 0.000000
vn 0.000000 -1.000000 0.000000
vn 0.000000 -1.000000 0.000000
vn 0.000000 -1.000000 0.000000
vn 0.000000 -1.000000 0.000000
vn 0.000000 0.000000 -1.000000
vn 0.000000 0.000000 -1.000000
vn 0.000000 0.000000 -1.000000
vn 0.000000 0.000000 -1.000000
vn -1.000000 0.000000 0.000000
vn -1.000000 0.000000 0.000000
vn -1.000000 0.000000 0.000000
vn -1.000000 0.000000 0.000000
vn 0.000000 0.000000 1.000000
vn 0.000000 0.000000 1.000000
vn 0.000000 0.000000 1.000000
vn 0.000000 0.000000 1.000000
vn 1.000000 0.000000 0.000000
vn 1.000000 0.000000 0.000000
vn 1.000000 0.000000 0.000000
vn 1.000000 0.000000 0.000000
vn 0.000000 1.000000 -0.000000
vn 0.000000 1.000000 -0.000000
vn 0.000000 1.000000 -0.000000
vn 0.000000 1.000000 -0.000000
vn 0.000000 1.000000 0.000000
vn 0.000000 1.000000 0.000000
vn 0.000000 1.000000 0.000000
vn 0.000000 1.000000 0.000000
vn 0.000000 0.000000 1.000000
vn 0.000000 0.000000 1.000000
vn 0.000000 0.000000 1.000000
vn 0.000000 0.000000 1.000000
vn 1.000000 0.000000 0.000000
vn 1.000000 0.000000 0.000000
vn 1.000000 0.000000 0.000000
vn 1.000000 0.000000 0.000000
vn 0.000000 0.000000 -1.000000
vn 0.000000 0.000000 -1.000000
vn 0.000000 0.000000 -1.000000
vn 0.000000 0.000000 -1.000000
vn -1.000000 0.000000 0.000000
vn -1.000000 0.000000 0.000000
vn -1.000000 0.000000 0.000000
vn -1.000000 0.000000 0.000000
vn 0.000000 0.000000 1.000000
vn 0.000000 0.000000 1.000000
vn 0.000000 0.000000 1.000000
vn 0.000000 0.000000 1.000000
vn 0.000000 0.000000 1.000000
vn 0.000000 0.000000 1.000000
vn 0.000000 1.000000 0.000000
vn 0.000000 1.000000 0.000000
vn 0.000000 1.000000 0.000000
vn 0.000000 1.000000 0.000000
vn 0.000000 1.000000 0.000000
vn 0.000000 1.000000 0.000000
vn 0.000000 1.000000 0.000000
vn 0.000000 1.000000 0.000000
vn 0.000000 1.000000 0.000000
vn 0.000000 0.000000 -1.000000
vn 0.000000 0.000000 -1.000000
vn 0.000000 0.000000 -1.000000
vn 0.000000 0.000000 -1.000000
vn 0.000000 0.000000 -1.000000
vn 0.000000 0.000000 -1.000000
vn 1.000000 0.000000 0.000000
vn 1.000000 0.000000 0.000000
vn 1.000000 0.000000 0.000000
vn 1.000000 0.000000 0.000000
vn 1.000000 0.000000 0.000000
vn 1.000000 0.000000 0.000000
vn -1.000000 0.000000 0.000000
vn -1.000000 0.000000 0.000000
vn -1.000000 0.000000 0.000000
vn -1.000000 0.000000 0.000000
vn -1.000000 0.000000 0.000000
vn -1.000000 0.000000 0.000000
vn -1.000000 0.000000 0.000000
vn -1.000000 0.000000 0.000000
vn 0.000000 -1.000000 0.000000
vn 0.000000 -1.000000 0.000000
vn 0.000000 -1.000000 0.000000
vn 0.000000 -1.000000 0.000000
vn 0.000000 0.000000 1.000000
vn 0.000000 0.000000 1.000000
vn 0.000000 1.000000 0.000000
vn 0.000000 1.000000 0.000000
vn 0.000000 0.000000 -1.000000
vn 0.000000 0.000000 -1.000000
vn 0.000000 0.000000 -1.000000
vn 0.000000 0.000000 -1.000000
vn 0.000000 1.000000 0.000000
vn 0.000000 1.000000 0.000000
vn 0.000000 1.000000 0.000000
vn 0.000000 1.000000 0.000000
vn 1.000000 0.000000 0.000000
vn 1.000000 0.000000 0.000000
vn 1.000000 0.000000 0.000000
vn 1.000000 0.000000 0.000000
vn -1.000000 0.000000 0.000000
vn -1.000000 0.000000 0.000000
vn -1.000000 0.000000 0.000000
vn -1.000000 0.000000 0.000000
vn 0.000000 0.000000 -1.000000
vn 0.000000 0.000000 -1.000000
vn 0.000000 0.000000 -1.000000
vn 0.000000 0.000000 -1.000000
vn 0.000000 0.000000 1.000000
vn 0.000000 0.000000 1.000000
vn 0.000000 0.000000 1.000000
vn 0.000000 0.000000 1.000000
s off
g polySurface496
usemtl initialShadingGroup
f 1//1 2//2 3//3 4//4
f 5//5 6//6 7//7 8//8
f 9//9 10//10 11//11 12//12
f 6//13 11//14 10//15 7//16
f 12//17 5//18 8//19 9//20
f 13//21 14//22 16//23 15//24
f 25//25 26//26 27//27 28//28
f 17//29 18//30 20//31 19//32
f 14//33 20//34 18//35 16//36
f 19//37 13//38 15//39 17//40
s 1
f 15//41 16//42 22//43 21//44
f 16//42 18//45 23//46 22//43
f 18//45 17//47 24//48 23//46
f 17//47 15//41 21//44 24//48
s off
f 21//49 22//50 26//51 25//52
f 22//53 23//54 27//55 26//56
f 23//57 24//58 28//59 27//60
f 24//61 21//62 25//63 28//64
s 2
f 29//65 30//66 33//67 32//68
f 30//66 31//69 34//70 33//67
s 3
f 32//71 33//72 36//73 35//74
f 33//72 34//75 37//76 36//73
f 35//74 36//73 39//77 38//78
f 36//73 37//76 40//79 39//77
s 4
f 38//80 39//81 42//82 41//83
f 39//81 40//84 43//85 42//82
s 5
f 45//86 43//87 40//88 37//89
f 31//90 45//86 37//89 34//91
s off
f 41//92 44//93 35//94 38//95
f 46//96 47//97 48//98 49//99
f 44//100 29//101 47//102 46//103
s 2
f 29//65 32//68 48//104 47//105
s 3
f 32//71 35//74 49//106 48//107
s off
f 35//108 44//109 46//110 49//111
f 54//112 55//113 56//114 57//115
f 50//116 53//117 52//118 51//119
f 50//120 51//121 55//122 54//123
f 51//124 52//125 56//126 55//127
f 52//128 53//129 57//130 56//131
f 53//132 50//133 54//134 57//135
f 58//136 59//137 60//138 61//139
f 61//140 60//141 62//142 63//143
f 63//144 62//145 64//146 65//147
f 59//148 64//149 62//150 60//151
f 65//152 58//153 61//154 63//155
f 66//156 67//157 68//158 69//159
f 69//160 68//161 70//162 71//163
f 71//164 70//165 72//166 73//167
f 67//168 72//169 70//170 68//171
f 73//172 66//173 69//174 71//175
f 74//176 75//177 77//178 76//179
f 76//180 77//181 79//182 78//183
f 78//184 79//185 81//186 80//187
f 75//188 81//189 79//190 77//191
f 80//192 74//193 76//194 78//195
f 82//196 83//197 85//198 84//199
f 84//200 85//201 87//202 86//203
f 86//204 87//205 89//206 88//207
f 83//208 89//209 87//210 85//211
f 88//212 82//213 84//214 86//215
f 102//216 103//217 104//218 105//219
f 90/1/220 93/2/221 92/3/222 91/4/223
f 90/5/224 91/6/225 95/7/226 94/8/227
f 91/9/228 92/10/229 96/11/230 95/12/231
f 92/13/232 93/14/233 97/15/234 96/16/235
f 93/17/236 90/18/237 94/19/238 97/20/239
s 6
f 94//240 95//241 99//242 98//243
f 95//241 96//244 100//245 99//242
f 96//244 97//246 101//247 100//245
f 97//246 94//240 98//243 101//247
s off
f 98/21/248 99/22/249 103/23/250 102/24/251
f 99/25/252 100/26/253 104/27/254 103/28/255
f 100/29/256 101/30/257 105/31/258 104/32/259
f 101/33/260 98/34/261 102/35/262 105/36/263
s 7
f 106//264 107//265 110//266 109//267
f 107//265 108//268 111//269 110//266
s 8
f 109//270 110//271 113//272 112//273
f 110//271 111//274 114//275 113//272
f 112//273 113//272 116//276 115//277
f 113//272 114//275 117//278 116//276
s 9
f 115//279 116//280 119//281 118//282
f 116//280 117//283 120//284 119//281
s 10
f 122//285 120//286 117//287 114//288
f 108//289 122//285 114//288 111//290
s off
f 118//291 121//292 112//293 115//294
f 123//295 124//296 125//297 126//298
f 121//299 106//300 124//301 123//302
s 7
f 106//264 109//267 125//303 124//304
s 8
f 109//270 112//273 126//305 125//306
s off
f 112//307 121//308 123//309 126//310
f 127//311 128//312 129//313 130//314
f 131//315 132//316 133//317 134//318
f 135//319 136//320 137//321 138//322
f 132//323 137//324 136//325 133//326
f 138//327 131//328 134//329 135//330
